Interstate-Condensed_Black_Italic.ufo
<glyph name="exclam" format="1">
  <advance width="273"/>
  <unicode hex="0021"/>
  <outline>
    <contour>
      <point x="237" y="411" type="line"/>
      <point x="177" y="218" type="line"/>
      <point x="66" y="218" type="line"/>
      <point x="73" y="411" type="line"/>
      <point x="124" y="700" type="line"/>
      <point x="288" y="700" type="line"/>
    </contour>
    <contour>
      <point x="187" y="80" type="curve" smooth="yes"/>
      <point x="187" y="27"/>
      <point x="149" y="-11"/>
      <point x="96" y="-11" type="curve" smooth="yes"/>
      <point x="43" y="-11"/>
      <point x="4" y="27"/>
      <point x="4" y="80" type="curve" smooth="yes"/>
      <point x="4" y="133"/>
      <point x="43" y="170"/>
      <point x="96" y="170" type="curve" smooth="yes"/>
      <point x="149" y="170"/>
      <point x="187" y="133"/>
    </contour>
  </outline>
</glyph>
<glyph name="quotedbl" format="1">
  <advance width="504"/>
  <unicode hex="0022"/>
  <outline>
    <contour>
      <point x="517" y="700" type="line"/>
      <point x="427" y="373" type="line"/>
      <point x="313" y="373" type="line"/>
      <point x="336" y="700" type="line"/>
    </contour>
    <contour>
      <point x="285" y="700" type="line"/>
      <point x="195" y="373" type="line"/>
      <point x="81" y="373" type="line"/>
      <point x="104" y="700" type="line"/>
    </contour>
  </outline>
</glyph>
<glyph name="numbersign" format="1">
  <advance width="631"/>
  <unicode hex="0023"/>
  <outline>
    <contour>
      <point x="556" y="136" type="line"/>
      <point x="476" y="136" type="line"/>
      <point x="452" y="0" type="line"/>
      <point x="302" y="0" type="line"/>
      <point x="326" y="136" type="line"/>
      <point x="230" y="136" type="line"/>
      <point x="206" y="0" type="line"/>
      <point x="56" y="0" type="line"/>
      <point x="80" y="136" type="line"/>
      <point x="0" y="136" type="line"/>
      <point x="23" y="265" type="line"/>
      <point x="103" y="265" type="line"/>
      <point x="133" y="435" type="line"/>
      <point x="53" y="435" type="line"/>
      <point x="75" y="564" type="line"/>
      <point x="155" y="564" type="line"/>
      <point x="179" y="700" type="line"/>
      <point x="329" y="700" type="line"/>
      <point x="305" y="564" type="line"/>
      <point x="401" y="564" type="line"/>
      <point x="425" y="700" type="line"/>
      <point x="575" y="700" type="line"/>
      <point x="551" y="564" type="line"/>
      <point x="631" y="564" type="line"/>
      <point x="609" y="435" type="line"/>
      <point x="529" y="435" type="line"/>
      <point x="499" y="265" type="line"/>
      <point x="579" y="265" type="line"/>
    </contour>
    <contour>
      <point x="354" y="259" type="line"/>
      <point x="386" y="441" type="line"/>
      <point x="278" y="441" type="line"/>
      <point x="246" y="259" type="line"/>
    </contour>
  </outline>
</glyph>
<glyph name="dollar" format="1">
  <advance width="498"/>
  <unicode hex="0024"/>
  <outline>
    <contour>
      <point x="451" y="195" type="curve" smooth="yes"/>
      <point x="435" y="94"/>
      <point x="364" y="29"/>
      <point x="274" y="5" type="curve"/>
      <point x="258" y="-83" type="line"/>
      <point x="98" y="-83" type="line"/>
      <point x="114" y="3" type="line"/>
      <point x="52" y="20"/>
      <point x="13" y="59"/>
      <point x="-20" y="116" type="curve"/>
      <point x="107" y="214" type="line"/>
      <point x="140" y="158"/>
      <point x="182" y="129"/>
      <point x="216" y="129" type="curve" smooth="yes"/>
      <point x="251" y="129"/>
      <point x="279" y="147"/>
      <point x="286" y="185" type="curve" smooth="yes"/>
      <point x="293" y="223"/>
      <point x="280" y="251"/>
      <point x="213" y="283" type="curve" smooth="yes"/>
      <point x="93" y="340"/>
      <point x="48" y="396"/>
      <point x="62" y="507" type="curve" smooth="yes"/>
      <point x="74" y="602"/>
      <point x="144" y="674"/>
      <point x="236" y="695" type="curve"/>
      <point x="251" y="783" type="line"/>
      <point x="411" y="783" type="line"/>
      <point x="396" y="696" type="line"/>
      <point x="447" y="681"/>
      <point x="483" y="646"/>
      <point x="515" y="595" type="curve"/>
      <point x="386" y="496" type="line"/>
      <point x="352" y="556"/>
      <point x="330" y="571"/>
      <point x="286" y="571" type="curve" smooth="yes"/>
      <point x="254" y="571"/>
      <point x="231" y="548"/>
      <point x="227" y="521" type="curve" smooth="yes"/>
      <point x="221" y="483"/>
      <point x="239" y="461"/>
      <point x="300" y="432" type="curve" smooth="yes"/>
      <point x="424" y="373"/>
      <point x="468" y="300"/>
    </contour>
  </outline>
</glyph>
<glyph name="percent" format="1">
  <advance width="906"/>
  <unicode hex="0025"/>
  <outline>
    <contour>
      <point x="391" y="494" type="curve" smooth="yes"/>
      <point x="371" y="351"/>
      <point x="291" y="275"/>
      <point x="186" y="275" type="curve" smooth="yes"/>
      <point x="81" y="275"/>
      <point x="26" y="349"/>
      <point x="46" y="492" type="curve" smooth="yes"/>
      <point x="66" y="635"/>
      <point x="144" y="711"/>
      <point x="249" y="711" type="curve" smooth="yes"/>
      <point x="354" y="711"/>
      <point x="411" y="637"/>
    </contour>
    <contour>
      <point x="754" y="700" type="line"/>
      <point x="287" y="0" type="line"/>
      <point x="151" y="0" type="line"/>
      <point x="618" y="700" type="line"/>
    </contour>
    <contour>
      <point x="860" y="208" type="curve" smooth="yes"/>
      <point x="840" y="65"/>
      <point x="760" y="-11"/>
      <point x="655" y="-11" type="curve" smooth="yes"/>
      <point x="550" y="-11"/>
      <point x="494" y="63"/>
      <point x="514" y="206" type="curve" smooth="yes"/>
      <point x="534" y="349"/>
      <point x="613" y="425"/>
      <point x="718" y="425" type="curve" smooth="yes"/>
      <point x="823" y="425"/>
      <point x="880" y="351"/>
    </contour>
    <contour>
      <point x="259" y="492" type="curve" smooth="yes"/>
      <point x="272" y="581"/>
      <point x="263" y="606"/>
      <point x="234" y="606" type="curve" smooth="yes"/>
      <point x="204" y="606"/>
      <point x="191" y="583"/>
      <point x="178" y="494" type="curve" smooth="yes"/>
      <point x="165" y="405"/>
      <point x="174" y="380"/>
      <point x="203" y="380" type="curve" smooth="yes"/>
      <point x="233" y="380"/>
      <point x="246" y="403"/>
    </contour>
    <contour>
      <point x="727" y="206" type="curve" smooth="yes"/>
      <point x="739" y="295"/>
      <point x="731" y="320"/>
      <point x="702" y="320" type="curve" smooth="yes"/>
      <point x="672" y="320"/>
      <point x="659" y="297"/>
      <point x="647" y="208" type="curve" smooth="yes"/>
      <point x="635" y="119"/>
      <point x="643" y="94"/>
      <point x="672" y="94" type="curve" smooth="yes"/>
      <point x="702" y="94"/>
      <point x="715" y="117"/>
    </contour>
  </outline>
</glyph>
<glyph name="ampersand" format="1">
  <advance width="552"/>
  <unicode hex="0026"/>
  <outline>
    <contour>
      <point x="500" y="0" type="line"/>
      <point x="329" y="0" type="line"/>
      <point x="306" y="51" type="line"/>
      <point x="256" y="5"/>
      <point x="206" y="-11"/>
      <point x="155" y="-11" type="curve" smooth="yes"/>
      <point x="49" y="-11"/>
      <point x="-4" y="53"/>
      <point x="-4" y="146" type="curve" smooth="yes"/>
      <point x="-4" y="248"/>
      <point x="63" y="322"/>
      <point x="152" y="391" type="curve"/>
      <point x="139" y="419" type="line" smooth="yes"/>
      <point x="122" y="456"/>
      <point x="109" y="499"/>
      <point x="115" y="545" type="curve" smooth="yes"/>
      <point x="129" y="653"/>
      <point x="216" y="711"/>
      <point x="324" y="711" type="curve" smooth="yes"/>
      <point x="413" y="711"/>
      <point x="469" y="681"/>
      <point x="513" y="628" type="curve"/>
      <point x="401" y="514" type="line"/>
      <point x="365" y="564"/>
      <point x="339" y="574"/>
      <point x="311" y="574" type="curve" smooth="yes"/>
      <point x="289" y="574"/>
      <point x="274" y="556"/>
      <point x="271" y="542" type="curve" smooth="yes"/>
      <point x="267" y="520"/>
      <point x="270" y="501"/>
      <point x="280" y="479" type="curve" smooth="yes"/>
      <point x="356" y="315" type="line"/>
      <point x="372" y="342"/>
      <point x="390" y="374"/>
      <point x="410" y="411" type="curve"/>
      <point x="528" y="361" type="line"/>
      <point x="486" y="289"/>
      <point x="450" y="230"/>
      <point x="416" y="182" type="curve"/>
    </contour>
    <contour>
      <point x="255" y="162" type="curve"/>
      <point x="203" y="275" type="line"/>
      <point x="170" y="247"/>
      <point x="151" y="205"/>
      <point x="151" y="172" type="curve" smooth="yes"/>
      <point x="151" y="145"/>
      <point x="163" y="123"/>
      <point x="191" y="123" type="curve" smooth="yes"/>
      <point x="214" y="123"/>
      <point x="238" y="137"/>
    </contour>
  </outline>
</glyph>
<glyph name="quotesingle" format="1">
  <advance width="273"/>
  <unicode hex="0027"/>
  <outline>
    <contour>
      <point x="286" y="700" type="line"/>
      <point x="195" y="373" type="line"/>
      <point x="80" y="373" type="line"/>
      <point x="104" y="700" type="line"/>
    </contour>
  </outline>
</glyph>
<glyph name="parenleft" format="1">
  <advance width="340"/>
  <unicode hex="0028"/>
  <outline>
    <contour>
      <point x="254" y="-46" type="curve"/>
      <point x="134" y="-110" type="line"/>
      <point x="59" y="8"/>
      <point x="15" y="132"/>
      <point x="45" y="302" type="curve" smooth="yes"/>
      <point x="76" y="478"/>
      <point x="164" y="601"/>
      <point x="280" y="719" type="curve"/>
      <point x="377" y="655" type="line"/>
      <point x="291" y="546"/>
      <point x="243" y="437"/>
      <point x="220" y="306" type="curve" smooth="yes"/>
      <point x="196" y="172"/>
      <point x="206" y="63"/>
    </contour>
  </outline>
</glyph>
<glyph name="parenright" format="1">
  <advance width="340"/>
  <unicode hex="0029"/>
  <outline>
    <contour>
      <point x="289" y="306" type="curve" smooth="yes"/>
      <point x="258" y="131"/>
      <point x="170" y="8"/>
      <point x="55" y="-110" type="curve"/>
      <point x="-43" y="-46" type="line"/>
      <point x="44" y="63"/>
      <point x="92" y="172"/>
      <point x="115" y="302" type="curve" smooth="yes"/>
      <point x="139" y="437"/>
      <point x="129" y="546"/>
      <point x="80" y="655" type="curve"/>
      <point x="201" y="719" type="line"/>
      <point x="275" y="601"/>
      <point x="319" y="477"/>
    </contour>
  </outline>
</glyph>
<glyph name="asterisk" format="1">
  <advance width="470"/>
  <unicode hex="002A"/>
  <outline>
    <contour>
      <point x="466" y="445" type="line"/>
      <point x="400" y="333" type="line"/>
      <point x="292" y="428" type="line"/>
      <point x="319" y="286" type="line"/>
      <point x="189" y="286" type="line"/>
      <point x="215" y="429" type="line"/>
      <point x="107" y="335" type="line"/>
      <point x="41" y="445" type="line"/>
      <point x="183" y="493" type="line"/>
      <point x="41" y="542" type="line"/>
      <point x="107" y="653" type="line"/>
      <point x="215" y="558" type="line"/>
      <point x="189" y="700" type="line"/>
      <point x="319" y="700" type="line"/>
      <point x="292" y="559" type="line"/>
      <point x="400" y="654" type="line"/>
      <point x="466" y="543" type="line"/>
      <point x="323" y="494" type="line"/>
    </contour>
  </outline>
</glyph>
<glyph name="plus" format="1">
  <advance width="512"/>
  <unicode hex="002B"/>
  <outline>
    <contour>
      <point x="474" y="272" type="line"/>
      <point x="333" y="272" type="line"/>
      <point x="333" y="118" type="line"/>
      <point x="179" y="118" type="line"/>
      <point x="179" y="272" type="line"/>
      <point x="38" y="272" type="line"/>
      <point x="38" y="416" type="line"/>
      <point x="179" y="416" type="line"/>
      <point x="179" y="570" type="line"/>
      <point x="333" y="570" type="line"/>
      <point x="333" y="416" type="line"/>
      <point x="474" y="416" type="line"/>
    </contour>
  </outline>
</glyph>
<glyph name="comma" format="1">
  <advance width="261"/>
  <unicode hex="002C"/>
  <outline>
    <contour>
      <point x="195" y="173" type="line"/>
      <point x="58" y="-117" type="line"/>
      <point x="-41" y="-117" type="line"/>
      <point x="26" y="173" type="line"/>
    </contour>
  </outline>
</glyph>
<glyph name="hyphen" format="1">
  <advance width="371"/>
  <unicode hex="002D"/>
  <unicode hex="2010"/>
  <unicode hex="2011"/>
  <outline>
    <contour>
      <point x="306" y="283" type="line"/>
      <point x="32" y="283" type="line"/>
      <point x="60" y="441" type="line"/>
      <point x="334" y="441" type="line"/>
    </contour>
  </outline>
</glyph>
<glyph name="period" format="1">
  <advance width="261"/>
  <unicode hex="002E"/>
  <outline>
    <contour>
      <point x="183" y="85" type="curve" smooth="yes"/>
      <point x="183" y="29"/>
      <point x="143" y="-11"/>
      <point x="87" y="-11" type="curve" smooth="yes"/>
      <point x="31" y="-11"/>
      <point x="-10" y="29"/>
      <point x="-10" y="85" type="curve" smooth="yes"/>
      <point x="-10" y="141"/>
      <point x="31" y="180"/>
      <point x="87" y="180" type="curve" smooth="yes"/>
      <point x="143" y="180"/>
      <point x="183" y="141"/>
    </contour>
  </outline>
</glyph>
<glyph name="slash" format="1">
  <advance width="395"/>
  <unicode hex="002F"/>
  <outline>
    <contour>
      <point x="492" y="790" type="line"/>
      <point x="71" y="-90" type="line"/>
      <point x="-88" y="-90" type="line"/>
      <point x="333" y="790" type="line"/>
    </contour>
  </outline>
</glyph>
<glyph name="zero" format="1">
  <advance width="547"/>
  <unicode hex="0030"/>
  <outline>
    <contour>
      <point x="516" y="351" type="curve" smooth="yes"/>
      <point x="482" y="109"/>
      <point x="376" y="-11"/>
      <point x="223" y="-11" type="curve" smooth="yes"/>
      <point x="94" y="-11"/>
      <point x="22" y="73"/>
      <point x="23" y="246" type="curve" smooth="yes"/>
      <point x="23" y="277"/>
      <point x="26" y="312"/>
      <point x="31" y="349" type="curve" smooth="yes"/>
      <point x="65" y="591"/>
      <point x="169" y="711"/>
      <point x="321" y="711" type="curve" smooth="yes"/>
      <point x="451" y="711"/>
      <point x="525" y="625"/>
      <point x="524" y="452" type="curve" smooth="yes"/>
      <point x="524" y="421"/>
      <point x="521" y="387"/>
    </contour>
    <contour>
      <point x="348" y="349" type="curve" smooth="yes"/>
      <point x="355" y="398"/>
      <point x="359" y="437"/>
      <point x="359" y="467" type="curve" smooth="yes"/>
      <point x="360" y="543"/>
      <point x="340" y="568"/>
      <point x="304" y="568" type="curve" smooth="yes"/>
      <point x="254" y="568"/>
      <point x="223" y="522"/>
      <point x="199" y="351" type="curve" smooth="yes"/>
      <point x="192" y="300"/>
      <point x="188" y="260"/>
      <point x="188" y="229" type="curve" smooth="yes"/>
      <point x="188" y="155"/>
      <point x="208" y="132"/>
      <point x="243" y="132" type="curve" smooth="yes"/>
      <point x="293" y="132"/>
      <point x="324" y="178"/>
    </contour>
  </outline>
</glyph>
<glyph name="one" format="1">
  <advance width="323"/>
  <unicode hex="0031"/>
  <outline>
    <contour>
      <point x="196" y="0" type="line"/>
      <point x="34" y="0" type="line"/>
      <point x="124" y="513" type="line"/>
      <point x="30" y="513" type="line"/>
      <point x="49" y="616" type="line"/>
      <point x="122" y="622"/>
      <point x="159" y="644"/>
      <point x="183" y="700" type="curve"/>
      <point x="319" y="700" type="line"/>
    </contour>
  </outline>
</glyph>
<glyph name="two" format="1">
  <advance width="530"/>
  <unicode hex="0032"/>
  <outline>
    <contour>
      <point x="433" y="0" type="line"/>
      <point x="-12" y="0" type="line"/>
      <point x="33" y="221"/>
      <point x="120" y="313"/>
      <point x="269" y="409" type="curve" smooth="yes"/>
      <point x="339" y="454"/>
      <point x="363" y="482"/>
      <point x="363" y="524" type="curve" smooth="yes"/>
      <point x="363" y="554"/>
      <point x="343" y="571"/>
      <point x="313" y="571" type="curve" smooth="yes"/>
      <point x="279" y="571"/>
      <point x="230" y="548"/>
      <point x="186" y="493" type="curve"/>
      <point x="93" y="583" type="line"/>
      <point x="164" y="663"/>
      <point x="242" y="711"/>
      <point x="342" y="711" type="curve" smooth="yes"/>
      <point x="466" y="711"/>
      <point x="524" y="646"/>
      <point x="524" y="549" type="curve" smooth="yes"/>
      <point x="524" y="453"/>
      <point x="479" y="395"/>
      <point x="363" y="320" type="curve" smooth="yes"/>
      <point x="244" y="243"/>
      <point x="206" y="196"/>
      <point x="187" y="139" type="curve"/>
      <point x="458" y="139" type="line"/>
    </contour>
  </outline>
</glyph>
<glyph name="three" format="1">
  <advance width="524"/>
  <unicode hex="0033"/>
  <outline>
    <contour>
      <point x="201" y="-11" type="curve" smooth="yes"/>
      <point x="102" y="-11"/>
      <point x="27" y="37"/>
      <point x="-16" y="123" type="curve"/>
      <point x="113" y="209" type="line"/>
      <point x="136" y="158"/>
      <point x="167" y="127"/>
      <point x="214" y="127" type="curve" smooth="yes"/>
      <point x="267" y="127"/>
      <point x="305" y="167"/>
      <point x="305" y="235" type="curve" smooth="yes"/>
      <point x="305" y="281"/>
      <point x="282" y="300"/>
      <point x="230" y="300" type="curve" smooth="yes"/>
      <point x="171" y="300" type="line"/>
      <point x="194" y="433" type="line"/>
      <point x="254" y="433" type="line" smooth="yes"/>
      <point x="310" y="433"/>
      <point x="340" y="468"/>
      <point x="340" y="521" type="curve" smooth="yes"/>
      <point x="340" y="554"/>
      <point x="323" y="575"/>
      <point x="288" y="575" type="curve" smooth="yes"/>
      <point x="247" y="575"/>
      <point x="208" y="546"/>
      <point x="170" y="510" type="curve"/>
      <point x="80" y="603" type="line"/>
      <point x="136" y="656"/>
      <point x="216" y="711"/>
      <point x="317" y="711" type="curve" smooth="yes"/>
      <point x="437" y="711"/>
      <point x="503" y="652"/>
      <point x="503" y="550" type="curve" smooth="yes"/>
      <point x="503" y="450"/>
      <point x="444" y="401"/>
      <point x="388" y="375" type="curve"/>
      <point x="431" y="361"/>
      <point x="466" y="318"/>
      <point x="466" y="242" type="curve" smooth="yes"/>
      <point x="466" y="72"/>
      <point x="343" y="-11"/>
    </contour>
  </outline>
</glyph>
<glyph name="four" format="1">
  <advance width="549"/>
  <unicode hex="0034"/>
  <outline>
    <contour>
      <point x="493" y="135" type="line"/>
      <point x="431" y="135" type="line"/>
      <point x="407" y="0" type="line"/>
      <point x="262" y="0" type="line"/>
      <point x="286" y="138" type="line"/>
      <point x="-7" y="138" type="line"/>
      <point x="14" y="253" type="line"/>
      <point x="373" y="700" type="line"/>
      <point x="530" y="700" type="line"/>
      <point x="455" y="270" type="line"/>
      <point x="517" y="270" type="line"/>
    </contour>
    <contour>
      <point x="361" y="518" type="curve"/>
      <point x="341" y="483"/>
      <point x="311" y="432"/>
      <point x="278" y="390" type="curve" smooth="yes"/>
      <point x="256" y="362" type="line" smooth="yes"/>
      <point x="233" y="332"/>
      <point x="201" y="294"/>
      <point x="177" y="268" type="curve"/>
      <point x="204" y="270"/>
      <point x="237" y="270"/>
      <point x="270" y="270" type="curve" smooth="yes"/>
      <point x="311" y="270" type="line"/>
      <point x="327" y="361" type="line" smooth="yes"/>
      <point x="334" y="402"/>
      <point x="351" y="480"/>
    </contour>
  </outline>
</glyph>
<glyph name="five" format="1">
  <advance width="540"/>
  <unicode hex="0035"/>
  <outline>
    <contour>
      <point x="221" y="-11" type="curve" smooth="yes"/>
      <point x="125" y="-11"/>
      <point x="43" y="34"/>
      <point x="-3" y="109" type="curve"/>
      <point x="121" y="208" type="line"/>
      <point x="149" y="157"/>
      <point x="185" y="127"/>
      <point x="230" y="127" type="curve" smooth="yes"/>
      <point x="291" y="127"/>
      <point x="334" y="180"/>
      <point x="334" y="271" type="curve" smooth="yes"/>
      <point x="334" y="321"/>
      <point x="311" y="345"/>
      <point x="274" y="345" type="curve" smooth="yes"/>
      <point x="235" y="345"/>
      <point x="213" y="328"/>
      <point x="189" y="301" type="curve"/>
      <point x="59" y="336" type="line"/>
      <point x="142" y="700" type="line"/>
      <point x="542" y="700" type="line"/>
      <point x="518" y="562" type="line"/>
      <point x="253" y="562" type="line"/>
      <point x="227" y="450" type="line"/>
      <point x="258" y="468"/>
      <point x="283" y="480"/>
      <point x="338" y="480" type="curve" smooth="yes"/>
      <point x="438" y="480"/>
      <point x="495" y="419"/>
      <point x="495" y="301" type="curve" smooth="yes"/>
      <point x="495" y="109"/>
      <point x="385" y="-11"/>
    </contour>
  </outline>
</glyph>
<glyph name="six" format="1">
  <advance width="530"/>
  <unicode hex="0036"/>
  <outline>
    <contour>
      <point x="224" y="-11" type="curve" smooth="yes"/>
      <point x="99" y="-11"/>
      <point x="19" y="63"/>
      <point x="19" y="206" type="curve" smooth="yes"/>
      <point x="18" y="432"/>
      <point x="162" y="665"/>
      <point x="449" y="714" type="curve"/>
      <point x="472" y="587" type="line"/>
      <point x="334" y="557"/>
      <point x="252" y="492"/>
      <point x="204" y="410" type="curve"/>
      <point x="238" y="434"/>
      <point x="271" y="449"/>
      <point x="327" y="449" type="curve" smooth="yes"/>
      <point x="420" y="449"/>
      <point x="492" y="393"/>
      <point x="492" y="276" type="curve" smooth="yes"/>
      <point x="493" y="97"/>
      <point x="379" y="-11"/>
    </contour>
    <contour>
      <point x="330" y="246" type="curve" smooth="yes"/>
      <point x="330" y="297"/>
      <point x="306" y="321"/>
      <point x="266" y="321" type="curve" smooth="yes"/>
      <point x="207" y="321"/>
      <point x="175" y="275"/>
      <point x="173" y="198" type="curve" smooth="yes"/>
      <point x="172" y="147"/>
      <point x="197" y="122"/>
      <point x="240" y="122" type="curve" smooth="yes"/>
      <point x="291" y="122"/>
      <point x="330" y="167"/>
    </contour>
  </outline>
</glyph>
<glyph name="seven" format="1">
  <advance width="521"/>
  <unicode hex="0037"/>
  <outline>
    <contour>
      <point x="527" y="571" type="line"/>
      <point x="332" y="381"/>
      <point x="283" y="244"/>
      <point x="240" y="0" type="curve"/>
      <point x="80" y="0" type="line"/>
      <point x="119" y="215"/>
      <point x="190" y="396"/>
      <point x="345" y="561" type="curve"/>
      <point x="75" y="561" type="line"/>
      <point x="99" y="700" type="line"/>
      <point x="549" y="700" type="line"/>
    </contour>
  </outline>
</glyph>
<glyph name="eight" format="1">
  <advance width="547"/>
  <unicode hex="0038"/>
  <outline>
    <contour>
      <point x="227" y="-11" type="curve" smooth="yes"/>
      <point x="81" y="-11"/>
      <point x="16" y="84"/>
      <point x="15" y="183" type="curve" smooth="yes"/>
      <point x="15" y="263"/>
      <point x="58" y="346"/>
      <point x="134" y="380" type="curve"/>
      <point x="102" y="417"/>
      <point x="87" y="459"/>
      <point x="87" y="500" type="curve" smooth="yes"/>
      <point x="87" y="607"/>
      <point x="184" y="711"/>
      <point x="334" y="711" type="curve" smooth="yes"/>
      <point x="458" y="711"/>
      <point x="535" y="642"/>
      <point x="535" y="537" type="curve" smooth="yes"/>
      <point x="535" y="459"/>
      <point x="489" y="411"/>
      <point x="440" y="380" type="curve"/>
      <point x="470" y="355"/>
      <point x="500" y="313"/>
      <point x="500" y="243" type="curve" smooth="yes"/>
      <point x="500" y="83"/>
      <point x="387" y="-11"/>
    </contour>
    <contour>
      <point x="378" y="528" type="curve" smooth="yes"/>
      <point x="378" y="564"/>
      <point x="359" y="585"/>
      <point x="320" y="585" type="curve" smooth="yes"/>
      <point x="270" y="585"/>
      <point x="243" y="552"/>
      <point x="242" y="499" type="curve" smooth="yes"/>
      <point x="242" y="463"/>
      <point x="261" y="440"/>
      <point x="300" y="440" type="curve" smooth="yes"/>
      <point x="352" y="440"/>
      <point x="378" y="479"/>
    </contour>
    <contour>
      <point x="342" y="241" type="curve" smooth="yes"/>
      <point x="342" y="286"/>
      <point x="316" y="312"/>
      <point x="272" y="312" type="curve" smooth="yes"/>
      <point x="211" y="312"/>
      <point x="173" y="265"/>
      <point x="173" y="194" type="curve" smooth="yes"/>
      <point x="173" y="147"/>
      <point x="201" y="121"/>
      <point x="245" y="121" type="curve" smooth="yes"/>
      <point x="304" y="121"/>
      <point x="343" y="166"/>
    </contour>
  </outline>
</glyph>
<glyph name="nine" format="1">
  <advance width="530"/>
  <unicode hex="0039"/>
  <outline>
    <contour>
      <point x="68" y="-14" type="curve"/>
      <point x="50" y="113" type="line"/>
      <point x="188" y="143"/>
      <point x="273" y="208"/>
      <point x="322" y="290" type="curve"/>
      <point x="294" y="270"/>
      <point x="254" y="251"/>
      <point x="200" y="251" type="curve" smooth="yes"/>
      <point x="95" y="251"/>
      <point x="40" y="341"/>
      <point x="40" y="441" type="curve" smooth="yes"/>
      <point x="40" y="612"/>
      <point x="175" y="711"/>
      <point x="304" y="711" type="curve" smooth="yes"/>
      <point x="419" y="711"/>
      <point x="517" y="648"/>
      <point x="517" y="502" type="curve" smooth="yes"/>
      <point x="517" y="279"/>
      <point x="370" y="35"/>
    </contour>
    <contour>
      <point x="362" y="506" type="curve" smooth="yes"/>
      <point x="362" y="550"/>
      <point x="340" y="578"/>
      <point x="297" y="578" type="curve" smooth="yes"/>
      <point x="244" y="578"/>
      <point x="203" y="534"/>
      <point x="203" y="454" type="curve" smooth="yes"/>
      <point x="203" y="409"/>
      <point x="225" y="379"/>
      <point x="265" y="379" type="curve" smooth="yes"/>
      <point x="325" y="379"/>
      <point x="362" y="427"/>
    </contour>
  </outline>
</glyph>
<glyph name="colon" format="1">
  <advance width="261"/>
  <unicode hex="003A"/>
  <outline>
    <contour>
      <point x="245" y="441" type="curve" smooth="yes"/>
      <point x="245" y="385"/>
      <point x="205" y="345"/>
      <point x="149" y="345" type="curve" smooth="yes"/>
      <point x="93" y="345"/>
      <point x="52" y="385"/>
      <point x="52" y="441" type="curve" smooth="yes"/>
      <point x="52" y="497"/>
      <point x="93" y="536"/>
      <point x="149" y="536" type="curve" smooth="yes"/>
      <point x="205" y="536"/>
      <point x="245" y="497"/>
    </contour>
    <contour>
      <point x="183" y="85" type="curve" smooth="yes"/>
      <point x="183" y="29"/>
      <point x="143" y="-11"/>
      <point x="87" y="-11" type="curve" smooth="yes"/>
      <point x="31" y="-11"/>
      <point x="-10" y="29"/>
      <point x="-10" y="85" type="curve" smooth="yes"/>
      <point x="-10" y="141"/>
      <point x="31" y="180"/>
      <point x="87" y="180" type="curve" smooth="yes"/>
      <point x="143" y="180"/>
      <point x="183" y="141"/>
    </contour>
  </outline>
</glyph>
<glyph name="semicolon" format="1">
  <advance width="261"/>
  <unicode hex="003B"/>
  <outline>
    <contour>
      <point x="245" y="441" type="curve" smooth="yes"/>
      <point x="245" y="385"/>
      <point x="205" y="345"/>
      <point x="149" y="345" type="curve" smooth="yes"/>
      <point x="93" y="345"/>
      <point x="52" y="385"/>
      <point x="52" y="441" type="curve" smooth="yes"/>
      <point x="52" y="497"/>
      <point x="93" y="536"/>
      <point x="149" y="536" type="curve" smooth="yes"/>
      <point x="205" y="536"/>
      <point x="245" y="497"/>
    </contour>
    <contour>
      <point x="195" y="173" type="line"/>
      <point x="58" y="-117" type="line"/>
      <point x="-41" y="-117" type="line"/>
      <point x="26" y="173" type="line"/>
    </contour>
  </outline>
</glyph>
<glyph name="question" format="1">
  <advance width="469"/>
  <unicode hex="003F"/>
  <outline>
    <contour>
      <point x="349" y="356" type="curve" smooth="yes"/>
      <point x="293" y="316"/>
      <point x="271" y="282"/>
      <point x="259" y="218" type="curve"/>
      <point x="111" y="218" type="line"/>
      <point x="129" y="319"/>
      <point x="162" y="370"/>
      <point x="243" y="426" type="curve" smooth="yes"/>
      <point x="287" y="457"/>
      <point x="311" y="486"/>
      <point x="311" y="525" type="curve" smooth="yes"/>
      <point x="311" y="552"/>
      <point x="291" y="571"/>
      <point x="264" y="571" type="curve" smooth="yes"/>
      <point x="222" y="571"/>
      <point x="186" y="546"/>
      <point x="142" y="495" type="curve"/>
      <point x="50" y="590" type="line"/>
      <point x="119" y="665"/>
      <point x="200" y="711"/>
      <point x="293" y="711" type="curve" smooth="yes"/>
      <point x="413" y="711"/>
      <point x="472" y="647"/>
      <point x="472" y="553" type="curve" smooth="yes"/>
      <point x="472" y="464"/>
      <point x="426" y="411"/>
    </contour>
    <contour>
      <point x="253" y="80" type="curve" smooth="yes"/>
      <point x="253" y="27"/>
      <point x="215" y="-11"/>
      <point x="162" y="-11" type="curve" smooth="yes"/>
      <point x="109" y="-11"/>
      <point x="70" y="27"/>
      <point x="70" y="80" type="curve" smooth="yes"/>
      <point x="70" y="133"/>
      <point x="109" y="170"/>
      <point x="162" y="170" type="curve" smooth="yes"/>
      <point x="215" y="170"/>
      <point x="253" y="133"/>
    </contour>
  </outline>
</glyph>
<glyph name="A" format="1">
  <advance width="569"/>
  <unicode hex="0041"/>
  <outline>
    <contour>
      <point x="485" y="0" type="line"/>
      <point x="313" y="0" type="line"/>
      <point x="310" y="130" type="line"/>
      <point x="172" y="130" type="line"/>
      <point x="124" y="0" type="line"/>
      <point x="-48" y="0" type="line"/>
      <point x="256" y="700" type="line"/>
      <point x="428" y="700" type="line"/>
    </contour>
    <contour>
      <point x="306" y="266" type="line"/>
      <point x="306" y="289" type="line" smooth="yes"/>
      <point x="306" y="381"/>
      <point x="305" y="457"/>
      <point x="309" y="521" type="curve"/>
      <point x="292" y="457"/>
      <point x="265" y="383"/>
      <point x="231" y="288" type="curve" smooth="yes"/>
      <point x="223" y="266" type="line"/>
    </contour>
  </outline>
</glyph>
<glyph name="B" format="1">
  <advance width="547"/>
  <unicode hex="0042"/>
  <outline>
    <contour>
      <point x="235" y="0" type="curve" smooth="yes"/>
      <point x="-11" y="0" type="line"/>
      <point x="112" y="700" type="line"/>
      <point x="350" y="700" type="line" smooth="yes"/>
      <point x="470" y="700"/>
      <point x="536" y="650"/>
      <point x="536" y="558" type="curve" smooth="yes"/>
      <point x="536" y="462"/>
      <point x="491" y="405"/>
      <point x="427" y="372" type="curve"/>
      <point x="469" y="351"/>
      <point x="496" y="315"/>
      <point x="496" y="256" type="curve" smooth="yes"/>
      <point x="496" y="98"/>
      <point x="399" y="0"/>
    </contour>
    <contour>
      <point x="370" y="519" type="curve" smooth="yes"/>
      <point x="370" y="552"/>
      <point x="354" y="570"/>
      <point x="317" y="570" type="curve" smooth="yes"/>
      <point x="250" y="570" type="line"/>
      <point x="224" y="427" type="line"/>
      <point x="300" y="427" type="line" smooth="yes"/>
      <point x="342" y="427"/>
      <point x="370" y="460"/>
    </contour>
    <contour>
      <point x="330" y="239" type="curve" smooth="yes"/>
      <point x="330" y="279"/>
      <point x="309" y="299"/>
      <point x="275" y="299" type="curve" smooth="yes"/>
      <point x="202" y="299" type="line"/>
      <point x="172" y="130" type="line"/>
      <point x="252" y="130" type="line" smooth="yes"/>
      <point x="299" y="130"/>
      <point x="330" y="173"/>
    </contour>
  </outline>
</glyph>
<glyph name="C" format="1">
  <advance width="516"/>
  <unicode hex="0043"/>
  <outline>
    <contour>
      <point x="486" y="194" type="line"/>
      <point x="439" y="67"/>
      <point x="370" y="-11"/>
      <point x="231" y="-11" type="curve" smooth="yes"/>
      <point x="92" y="-11"/>
      <point x="22" y="78"/>
      <point x="24" y="248" type="curve" smooth="yes"/>
      <point x="24" y="279"/>
      <point x="27" y="313"/>
      <point x="32" y="349" type="curve" smooth="yes"/>
      <point x="66" y="592"/>
      <point x="172" y="711"/>
      <point x="328" y="711" type="curve" smooth="yes"/>
      <point x="475" y="711"/>
      <point x="518" y="627"/>
      <point x="526" y="493" type="curve"/>
      <point x="361" y="450" type="line"/>
      <point x="363" y="530"/>
      <point x="351" y="566"/>
      <point x="311" y="567" type="curve" smooth="yes"/>
      <point x="260" y="568"/>
      <point x="228" y="512"/>
      <point x="205" y="351" type="curve" smooth="yes"/>
      <point x="198" y="304"/>
      <point x="195" y="266"/>
      <point x="194" y="235" type="curve" smooth="yes"/>
      <point x="193" y="161"/>
      <point x="211" y="133"/>
      <point x="251" y="133" type="curve" smooth="yes"/>
      <point x="290" y="133"/>
      <point x="321" y="170"/>
      <point x="341" y="246" type="curve"/>
    </contour>
  </outline>
</glyph>
<glyph name="D" format="1">
  <advance width="558"/>
  <unicode hex="0044"/>
  <outline>
    <contour>
      <point x="525" y="355" type="curve" smooth="yes"/>
      <point x="485" y="102"/>
      <point x="367" y="0"/>
      <point x="177" y="0" type="curve" smooth="yes"/>
      <point x="-11" y="0" type="line"/>
      <point x="112" y="700" type="line"/>
      <point x="315" y="700" type="line" smooth="yes"/>
      <point x="465" y="700"/>
      <point x="535" y="628"/>
      <point x="535" y="468" type="curve" smooth="yes"/>
      <point x="535" y="438"/>
      <point x="532" y="397"/>
    </contour>
    <contour>
      <point x="353" y="352" type="curve" smooth="yes"/>
      <point x="361" y="400"/>
      <point x="365" y="437"/>
      <point x="365" y="466" type="curve" smooth="yes"/>
      <point x="365" y="542"/>
      <point x="339" y="561"/>
      <point x="285" y="561" type="curve" smooth="yes"/>
      <point x="255" y="561" type="line"/>
      <point x="180" y="138" type="line"/>
      <point x="206" y="138" type="line" smooth="yes"/>
      <point x="284" y="138"/>
      <point x="324" y="175"/>
    </contour>
  </outline>
</glyph>
<glyph name="E" format="1">
  <advance width="488"/>
  <unicode hex="0045"/>
  <outline>
    <contour>
      <point x="401" y="0" type="line"/>
      <point x="-11" y="0" type="line"/>
      <point x="112" y="700" type="line"/>
      <point x="517" y="700" type="line"/>
      <point x="492" y="557" type="line"/>
      <point x="253" y="557" type="line"/>
      <point x="232" y="437" type="line"/>
      <point x="386" y="437" type="line"/>
      <point x="361" y="295" type="line"/>
      <point x="207" y="295" type="line"/>
      <point x="180" y="143" type="line"/>
      <point x="426" y="143" type="line"/>
    </contour>
  </outline>
</glyph>
<glyph name="F" format="1">
  <advance width="481"/>
  <unicode hex="0046"/>
  <outline>
    <contour>
      <point x="502" y="556" type="line"/>
      <point x="254" y="556" type="line"/>
      <point x="233" y="434" type="line"/>
      <point x="393" y="434" type="line"/>
      <point x="367" y="291" type="line"/>
      <point x="207" y="291" type="line"/>
      <point x="156" y="0" type="line"/>
      <point x="-11" y="0" type="line"/>
      <point x="112" y="700" type="line"/>
      <point x="527" y="700" type="line"/>
    </contour>
  </outline>
</glyph>
<glyph name="G" format="1">
  <advance width="556"/>
  <unicode hex="0047"/>
  <outline>
    <contour>
      <point x="510" y="262" type="line" smooth="yes"/>
      <point x="485" y="93"/>
      <point x="391" y="-12"/>
      <point x="227" y="-9" type="curve" smooth="yes"/>
      <point x="96" y="-7"/>
      <point x="22" y="76"/>
      <point x="22" y="243" type="curve" smooth="yes"/>
      <point x="22" y="277"/>
      <point x="26" y="314"/>
      <point x="32" y="355" type="curve" smooth="yes"/>
      <point x="69" y="588"/>
      <point x="167" y="714"/>
      <point x="336" y="711" type="curve" smooth="yes"/>
      <point x="480" y="708"/>
      <point x="527" y="631"/>
      <point x="537" y="498" type="curve"/>
      <point x="369" y="455" type="line"/>
      <point x="370" y="528"/>
      <point x="360" y="566"/>
      <point x="318" y="567" type="curve" smooth="yes"/>
      <point x="259" y="568"/>
      <point x="230" y="513"/>
      <point x="205" y="352" type="curve" smooth="yes"/>
      <point x="197" y="303"/>
      <point x="194" y="264"/>
      <point x="194" y="233" type="curve" smooth="yes"/>
      <point x="193" y="156"/>
      <point x="216" y="132"/>
      <point x="257" y="131" type="curve" smooth="yes"/>
      <point x="311" y="130"/>
      <point x="338" y="164"/>
      <point x="345" y="218" type="curve" smooth="yes"/>
      <point x="349" y="247" type="line"/>
      <point x="268" y="247" type="line"/>
      <point x="288" y="375" type="line"/>
      <point x="527" y="375" type="line"/>
    </contour>
  </outline>
</glyph>
<glyph name="H" format="1">
  <advance width="576"/>
  <unicode hex="0048"/>
  <outline>
    <contour>
      <point x="464" y="0" type="line"/>
      <point x="295" y="0" type="line"/>
      <point x="347" y="293" type="line"/>
      <point x="210" y="293" type="line"/>
      <point x="158" y="0" type="line"/>
      <point x="-11" y="0" type="line"/>
      <point x="112" y="700" type="line"/>
      <point x="281" y="700" type="line"/>
      <point x="235" y="439" type="line"/>
      <point x="372" y="439" type="line"/>
      <point x="418" y="700" type="line"/>
      <point x="587" y="700" type="line"/>
    </contour>
  </outline>
</glyph>
<glyph name="I" format="1">
  <advance width="278"/>
  <unicode hex="0049"/>
  <outline>
    <contour>
      <point x="162" y="0" type="line"/>
      <point x="-7" y="0" type="line"/>
      <point x="116" y="700" type="line"/>
      <point x="285" y="700" type="line"/>
    </contour>
  </outline>
</glyph>
<glyph name="J" format="1">
  <advance width="531"/>
  <unicode hex="004A"/>
  <outline>
    <contour>
      <point x="455" y="204" type="line" smooth="yes"/>
      <point x="433" y="82"/>
      <point x="352" y="-11"/>
      <point x="201" y="-11" type="curve" smooth="yes"/>
      <point x="51" y="-11"/>
      <point x="-8" y="89"/>
      <point x="-5" y="207" type="curve"/>
      <point x="155" y="242" type="line"/>
      <point x="151" y="173"/>
      <point x="164" y="134"/>
      <point x="215" y="134" type="curve" smooth="yes"/>
      <point x="259" y="134"/>
      <point x="280" y="164"/>
      <point x="290" y="223" type="curve" smooth="yes"/>
      <point x="374" y="700" type="line"/>
      <point x="543" y="700" type="line"/>
    </contour>
  </outline>
</glyph>
<glyph name="K" format="1">
  <advance width="552"/>
  <unicode hex="004B"/>
  <outline>
    <contour>
      <point x="484" y="0" type="line"/>
      <point x="311" y="0" type="line"/>
      <point x="258" y="310" type="line"/>
      <point x="199" y="233" type="line"/>
      <point x="158" y="0" type="line"/>
      <point x="-11" y="0" type="line"/>
      <point x="112" y="700" type="line"/>
      <point x="281" y="700" type="line"/>
      <point x="267" y="618" type="line" smooth="yes"/>
      <point x="256" y="554"/>
      <point x="244" y="490"/>
      <point x="233" y="437" type="curve"/>
      <point x="263" y="489"/>
      <point x="319" y="570"/>
      <point x="357" y="624" type="curve" smooth="yes"/>
      <point x="411" y="700" type="line"/>
      <point x="598" y="700" type="line"/>
      <point x="399" y="440" type="line"/>
    </contour>
  </outline>
</glyph>
<glyph name="L" format="1">
  <advance width="447"/>
  <unicode hex="004C"/>
  <outline>
    <contour>
      <point x="369" y="0" type="line"/>
      <point x="-11" y="0" type="line"/>
      <point x="112" y="700" type="line"/>
      <point x="281" y="700" type="line"/>
      <point x="184" y="146" type="line"/>
      <point x="395" y="146" type="line"/>
    </contour>
  </outline>
</glyph>
<glyph name="M" format="1">
  <advance width="662"/>
  <unicode hex="004D"/>
  <outline>
    <contour>
      <point x="549" y="0" type="line"/>
      <point x="398" y="0" type="line"/>
      <point x="425" y="155" type="line" smooth="yes"/>
      <point x="438" y="230"/>
      <point x="452" y="298"/>
      <point x="465" y="358" type="curve"/>
      <point x="440" y="303"/>
      <point x="397" y="215"/>
      <point x="363" y="153" type="curve" smooth="yes"/>
      <point x="266" y="-22" type="line"/>
      <point x="231" y="153" type="line" smooth="yes"/>
      <point x="219" y="215"/>
      <point x="206" y="303"/>
      <point x="201" y="358" type="curve"/>
      <point x="193" y="300"/>
      <point x="182" y="230"/>
      <point x="169" y="155" type="curve" smooth="yes"/>
      <point x="142" y="0" type="line"/>
      <point x="-10" y="0" type="line"/>
      <point x="113" y="700" type="line"/>
      <point x="265" y="700" type="line"/>
      <point x="297" y="528" type="line" smooth="yes"/>
      <point x="312" y="445"/>
      <point x="325" y="362"/>
      <point x="325" y="313" type="curve"/>
      <point x="344" y="362"/>
      <point x="384" y="443"/>
      <point x="430" y="529" type="curve" smooth="yes"/>
      <point x="521" y="700" type="line"/>
      <point x="672" y="700" type="line"/>
    </contour>
  </outline>
</glyph>
<glyph name="N" format="1">
  <advance width="582"/>
  <unicode hex="004E"/>
  <outline>
    <contour>
      <point x="469" y="0" type="line"/>
      <point x="335" y="0" type="line"/>
      <point x="267" y="201" type="line" smooth="yes"/>
      <point x="241" y="277"/>
      <point x="218" y="353"/>
      <point x="211" y="393" type="curve"/>
      <point x="208" y="353"/>
      <point x="194" y="264"/>
      <point x="182" y="198" type="curve" smooth="yes"/>
      <point x="147" y="0" type="line"/>
      <point x="-10" y="0" type="line"/>
      <point x="113" y="700" type="line"/>
      <point x="259" y="700" type="line"/>
      <point x="320" y="540" type="line" smooth="yes"/>
      <point x="347" y="468"/>
      <point x="372" y="382"/>
      <point x="379" y="344" type="curve"/>
      <point x="381" y="382"/>
      <point x="397" y="479"/>
      <point x="408" y="543" type="curve" smooth="yes"/>
      <point x="435" y="700" type="line"/>
      <point x="592" y="700" type="line"/>
    </contour>
  </outline>
</glyph>
<glyph name="O" format="1">
  <advance width="561"/>
  <unicode hex="004F"/>
  <outline>
    <contour>
      <point x="529" y="351" type="curve" smooth="yes"/>
      <point x="494" y="104"/>
      <point x="386" y="-11"/>
      <point x="228" y="-11" type="curve" smooth="yes"/>
      <point x="96" y="-11"/>
      <point x="22" y="69"/>
      <point x="23" y="242" type="curve" smooth="yes"/>
      <point x="23" y="274"/>
      <point x="26" y="310"/>
      <point x="32" y="349" type="curve" smooth="yes"/>
      <point x="71" y="613"/>
      <point x="175" y="711"/>
      <point x="332" y="711" type="curve" smooth="yes"/>
      <point x="461" y="711"/>
      <point x="535" y="633"/>
      <point x="537" y="468" type="curve" smooth="yes"/>
      <point x="538" y="433"/>
      <point x="535" y="394"/>
    </contour>
    <contour>
      <point x="357" y="349" type="curve" smooth="yes"/>
      <point x="364" y="398"/>
      <point x="368" y="437"/>
      <point x="368" y="468" type="curve" smooth="yes"/>
      <point x="368" y="542"/>
      <point x="349" y="567"/>
      <point x="311" y="567" type="curve" smooth="yes"/>
      <point x="258" y="567"/>
      <point x="227" y="511"/>
      <point x="204" y="351" type="curve" smooth="yes"/>
      <point x="196" y="296"/>
      <point x="194" y="267"/>
      <point x="193" y="237" type="curve" smooth="yes"/>
      <point x="192" y="158"/>
      <point x="212" y="133"/>
      <point x="250" y="133" type="curve" smooth="yes"/>
      <point x="302" y="133"/>
      <point x="333" y="183"/>
    </contour>
  </outline>
</glyph>
<glyph name="P" format="1">
  <advance width="526"/>
  <unicode hex="0050"/>
  <outline>
    <contour>
      <point x="263" y="254" type="curve" smooth="yes"/>
      <point x="203" y="254" type="line"/>
      <point x="158" y="0" type="line"/>
      <point x="-11" y="0" type="line"/>
      <point x="112" y="700" type="line"/>
      <point x="349" y="700" type="line" smooth="yes"/>
      <point x="455" y="700"/>
      <point x="537" y="655"/>
      <point x="537" y="536" type="curve" smooth="yes"/>
      <point x="537" y="343"/>
      <point x="413" y="254"/>
    </contour>
    <contour>
      <point x="368" y="509" type="curve" smooth="yes"/>
      <point x="368" y="547"/>
      <point x="350" y="564"/>
      <point x="312" y="564" type="curve" smooth="yes"/>
      <point x="257" y="564" type="line"/>
      <point x="227" y="390" type="line"/>
      <point x="281" y="390" type="line" smooth="yes"/>
      <point x="339" y="390"/>
      <point x="368" y="433"/>
    </contour>
  </outline>
</glyph>
<glyph name="Q" format="1">
  <advance width="561"/>
  <unicode hex="0051"/>
  <outline>
    <contour>
      <point x="446" y="111" type="curve"/>
      <point x="493" y="55" type="line"/>
      <point x="389" y="-33" type="line"/>
      <point x="348" y="20" type="line"/>
      <point x="311" y="0"/>
      <point x="273" y="-11"/>
      <point x="228" y="-11" type="curve" smooth="yes"/>
      <point x="96" y="-11"/>
      <point x="22" y="69"/>
      <point x="23" y="241" type="curve" smooth="yes"/>
      <point x="23" y="274"/>
      <point x="26" y="310"/>
      <point x="32" y="349" type="curve" smooth="yes"/>
      <point x="72" y="617"/>
      <point x="175" y="711"/>
      <point x="332" y="711" type="curve" smooth="yes"/>
      <point x="460" y="711"/>
      <point x="537" y="633"/>
      <point x="537" y="469" type="curve" smooth="yes"/>
      <point x="537" y="434"/>
      <point x="535" y="394"/>
      <point x="529" y="351" type="curve" smooth="yes"/>
      <point x="514" y="248"/>
      <point x="486" y="170"/>
    </contour>
    <contour>
      <point x="362" y="345" type="curve" smooth="yes"/>
      <point x="368" y="389"/>
      <point x="371" y="426"/>
      <point x="371" y="455" type="curve" smooth="yes"/>
      <point x="371" y="538"/>
      <point x="350" y="567"/>
      <point x="312" y="567" type="curve" smooth="yes"/>
      <point x="259" y="567"/>
      <point x="225" y="517"/>
      <point x="201" y="351" type="curve" smooth="yes"/>
      <point x="194" y="300"/>
      <point x="190" y="259"/>
      <point x="190" y="228" type="curve" smooth="yes"/>
      <point x="189" y="144"/>
      <point x="213" y="127"/>
      <point x="251" y="127" type="curve" smooth="yes"/>
      <point x="254" y="127"/>
      <point x="257" y="128"/>
      <point x="260" y="128" type="curve"/>
      <point x="216" y="182" type="line"/>
      <point x="317" y="270" type="line"/>
      <point x="343" y="236" type="line"/>
      <point x="350" y="265"/>
      <point x="356" y="301"/>
    </contour>
  </outline>
</glyph>
<glyph name="R" format="1">
  <advance width="551"/>
  <unicode hex="0052"/>
  <outline>
    <contour>
      <point x="458" y="0" type="line"/>
      <point x="290" y="0" type="line"/>
      <point x="255" y="268" type="line"/>
      <point x="200" y="268" type="line"/>
      <point x="153" y="0" type="line"/>
      <point x="-11" y="0" type="line"/>
      <point x="112" y="700" type="line"/>
      <point x="354" y="700" type="line" smooth="yes"/>
      <point x="465" y="700"/>
      <point x="539" y="656"/>
      <point x="539" y="540" type="curve" smooth="yes"/>
      <point x="539" y="427"/>
      <point x="485" y="344"/>
      <point x="409" y="303" type="curve"/>
    </contour>
    <contour>
      <point x="370" y="511" type="curve" smooth="yes"/>
      <point x="370" y="548"/>
      <point x="353" y="567"/>
      <point x="316" y="567" type="curve" smooth="yes"/>
      <point x="253" y="567" type="line"/>
      <point x="223" y="396" type="line"/>
      <point x="286" y="396" type="line" smooth="yes"/>
      <point x="343" y="396"/>
      <point x="370" y="443"/>
    </contour>
  </outline>
</glyph>
<glyph name="S" format="1">
  <advance width="508"/>
  <unicode hex="0053"/>
  <outline>
    <contour>
      <point x="209" y="-11" type="curve" smooth="yes"/>
      <point x="109" y="-11"/>
      <point x="34" y="36"/>
      <point x="-14" y="111" type="curve"/>
      <point x="111" y="211" type="line"/>
      <point x="146" y="148"/>
      <point x="188" y="129"/>
      <point x="222" y="129" type="curve" smooth="yes"/>
      <point x="259" y="129"/>
      <point x="291" y="151"/>
      <point x="292" y="194" type="curve" smooth="yes"/>
      <point x="292" y="228"/>
      <point x="264" y="255"/>
      <point x="199" y="293" type="curve" smooth="yes"/>
      <point x="107" y="347"/>
      <point x="51" y="404"/>
      <point x="51" y="492" type="curve" smooth="yes"/>
      <point x="50" y="615"/>
      <point x="139" y="711"/>
      <point x="288" y="711" type="curve" smooth="yes"/>
      <point x="390" y="711"/>
      <point x="455" y="671"/>
      <point x="497" y="607" type="curve"/>
      <point x="373" y="509" type="line"/>
      <point x="350" y="552"/>
      <point x="323" y="576"/>
      <point x="281" y="576" type="curve" smooth="yes"/>
      <point x="245" y="576"/>
      <point x="216" y="549"/>
      <point x="216" y="518" type="curve" smooth="yes"/>
      <point x="216" y="477"/>
      <point x="240" y="458"/>
      <point x="294" y="429" type="curve" smooth="yes"/>
      <point x="401" y="372"/>
      <point x="457" y="314"/>
      <point x="457" y="219" type="curve" smooth="yes"/>
      <point x="457" y="83"/>
      <point x="357" y="-11"/>
    </contour>
  </outline>
</glyph>
<glyph name="T" format="1">
  <advance width="503"/>
  <unicode hex="0054"/>
  <outline>
    <contour>
      <point x="516" y="554" type="line"/>
      <point x="374" y="554" type="line"/>
      <point x="276" y="0" type="line"/>
      <point x="109" y="0" type="line"/>
      <point x="207" y="554" type="line"/>
      <point x="65" y="554" type="line"/>
      <point x="90" y="700" type="line"/>
      <point x="541" y="700" type="line"/>
    </contour>
  </outline>
</glyph>
<glyph name="U" format="1">
  <advance width="576"/>
  <unicode hex="0055"/>
  <outline>
    <contour>
      <point x="507" y="245" type="line" smooth="yes"/>
      <point x="476" y="68"/>
      <point x="381" y="-11"/>
      <point x="232" y="-11" type="curve" smooth="yes"/>
      <point x="87" y="-11"/>
      <point x="1" y="69"/>
      <point x="31" y="241" type="curve" smooth="yes"/>
      <point x="112" y="700" type="line"/>
      <point x="281" y="700" type="line"/>
      <point x="200" y="236" type="line" smooth="yes"/>
      <point x="188" y="169"/>
      <point x="203" y="134"/>
      <point x="253" y="134" type="curve" smooth="yes"/>
      <point x="302" y="134"/>
      <point x="325" y="169"/>
      <point x="337" y="236" type="curve" smooth="yes"/>
      <point x="418" y="700" type="line"/>
      <point x="587" y="700" type="line"/>
    </contour>
  </outline>
</glyph>
<glyph name="V" format="1">
  <advance width="553"/>
  <unicode hex="0056"/>
  <outline>
    <contour>
      <point x="596" y="700" type="line"/>
      <point x="299" y="0" type="line"/>
      <point x="132" y="0" type="line"/>
      <point x="80" y="700" type="line"/>
      <point x="258" y="700" type="line"/>
      <point x="259" y="495" type="line" smooth="yes"/>
      <point x="259" y="403"/>
      <point x="258" y="271"/>
      <point x="252" y="200" type="curve"/>
      <point x="271" y="271"/>
      <point x="315" y="403"/>
      <point x="347" y="495" type="curve" smooth="yes"/>
      <point x="419" y="700" type="line"/>
    </contour>
  </outline>
</glyph>
<glyph name="W" format="1">
  <advance width="719"/>
  <unicode hex="0057"/>
  <outline>
    <contour>
      <point x="750" y="700" type="line"/>
      <point x="506" y="0" type="line"/>
      <point x="351" y="0" type="line"/>
      <point x="353" y="138" type="line" smooth="yes"/>
      <point x="355" y="244"/>
      <point x="359" y="361"/>
      <point x="365" y="422" type="curve"/>
      <point x="351" y="361"/>
      <point x="313" y="245"/>
      <point x="277" y="138" type="curve" smooth="yes"/>
      <point x="230" y="0" type="line"/>
      <point x="77" y="0" type="line"/>
      <point x="79" y="700" type="line"/>
      <point x="242" y="700" type="line"/>
      <point x="236" y="572" type="line" smooth="yes"/>
      <point x="232" y="485"/>
      <point x="223" y="366"/>
      <point x="212" y="278" type="curve"/>
      <point x="234" y="365"/>
      <point x="273" y="483"/>
      <point x="301" y="571" type="curve" smooth="yes"/>
      <point x="342" y="700" type="line"/>
      <point x="487" y="700" type="line"/>
      <point x="485" y="571" type="line" smooth="yes"/>
      <point x="484" y="484"/>
      <point x="478" y="365"/>
      <point x="470" y="278" type="curve"/>
      <point x="491" y="366"/>
      <point x="524" y="483"/>
      <point x="550" y="572" type="curve" smooth="yes"/>
      <point x="587" y="700" type="line"/>
    </contour>
  </outline>
</glyph>
<glyph name="X" format="1">
  <advance width="544"/>
  <unicode hex="0058"/>
  <outline>
    <contour>
      <point x="471" y="0" type="line"/>
      <point x="289" y="0" type="line"/>
      <point x="274" y="76" type="line" smooth="yes"/>
      <point x="263" y="131"/>
      <point x="255" y="182"/>
      <point x="253" y="225" type="curve"/>
      <point x="235" y="182"/>
      <point x="207" y="131"/>
      <point x="177" y="76" type="curve" smooth="yes"/>
      <point x="135" y="0" type="line"/>
      <point x="-42" y="0" type="line"/>
      <point x="185" y="357" type="line"/>
      <point x="87" y="700" type="line"/>
      <point x="269" y="700" type="line"/>
      <point x="282" y="640" type="line" smooth="yes"/>
      <point x="294" y="585"/>
      <point x="301" y="536"/>
      <point x="303" y="493" type="curve"/>
      <point x="321" y="536"/>
      <point x="346" y="584"/>
      <point x="377" y="640" type="curve" smooth="yes"/>
      <point x="410" y="700" type="line"/>
      <point x="587" y="700" type="line"/>
      <point x="370" y="361" type="line"/>
    </contour>
  </outline>
</glyph>
<glyph name="Y" format="1">
  <advance width="543"/>
  <unicode hex="0059"/>
  <outline>
    <contour>
      <point x="607" y="700" type="line"/>
      <point x="345" y="271" type="line"/>
      <point x="297" y="0" type="line"/>
      <point x="129" y="0" type="line"/>
      <point x="176" y="268" type="line"/>
      <point x="64" y="700" type="line"/>
      <point x="249" y="700" type="line"/>
      <point x="265" y="607" type="line" smooth="yes"/>
      <point x="278" y="531"/>
      <point x="287" y="458"/>
      <point x="285" y="405" type="curve"/>
      <point x="302" y="458"/>
      <point x="338" y="532"/>
      <point x="377" y="607" type="curve" smooth="yes"/>
      <point x="425" y="700" type="line"/>
    </contour>
  </outline>
</glyph>
<glyph name="Z" format="1">
  <advance width="521"/>
  <unicode hex="005A"/>
  <outline>
    <contour>
      <point x="413" y="0" type="line"/>
      <point x="-21" y="0" type="line"/>
      <point x="1" y="126" type="line"/>
      <point x="209" y="408" type="line" smooth="yes"/>
      <point x="247" y="460"/>
      <point x="299" y="530"/>
      <point x="326" y="563" type="curve"/>
      <point x="289" y="562"/>
      <point x="231" y="561"/>
      <point x="183" y="561" type="curve" smooth="yes"/>
      <point x="92" y="561" type="line"/>
      <point x="116" y="700" type="line"/>
      <point x="535" y="700" type="line"/>
      <point x="512" y="571" type="line"/>
      <point x="250" y="217" type="line" smooth="yes"/>
      <point x="229" y="189"/>
      <point x="215" y="170"/>
      <point x="188" y="137" type="curve"/>
      <point x="226" y="138"/>
      <point x="283" y="139"/>
      <point x="331" y="139" type="curve" smooth="yes"/>
      <point x="438" y="139" type="line"/>
    </contour>
  </outline>
</glyph>
<glyph name="bracketleft" format="1">
  <advance width="369"/>
  <unicode hex="005B"/>
  <outline>
    <contour>
      <point x="252" y="-101" type="line"/>
      <point x="-7" y="-101" type="line"/>
      <point x="134" y="700" type="line"/>
      <point x="393" y="700" type="line"/>
      <point x="371" y="570" type="line"/>
      <point x="268" y="570" type="line"/>
      <point x="172" y="29" type="line"/>
      <point x="275" y="29" type="line"/>
    </contour>
  </outline>
</glyph>
<glyph name="backslash" format="1">
  <advance width="395"/>
  <unicode hex="005C"/>
  <outline>
    <contour>
      <point x="334" y="-90" type="line"/>
      <point x="175" y="-90" type="line"/>
      <point x="64" y="790" type="line"/>
      <point x="223" y="790" type="line"/>
    </contour>
  </outline>
</glyph>
<glyph name="bracketright" format="1">
  <advance width="369"/>
  <unicode hex="005D"/>
  <outline>
    <contour>
      <point x="218" y="-101" type="line"/>
      <point x="-41" y="-101" type="line"/>
      <point x="-18" y="29" type="line"/>
      <point x="85" y="29" type="line"/>
      <point x="181" y="570" type="line"/>
      <point x="78" y="570" type="line"/>
      <point x="100" y="700" type="line"/>
      <point x="359" y="700" type="line"/>
    </contour>
  </outline>
</glyph>
<glyph name="asciicircum" format="1">
  <advance width="475"/>
  <unicode hex="005E"/>
  <outline>
    <contour>
      <point x="456" y="372" type="line"/>
      <point x="296" y="372" type="line"/>
      <point x="273" y="549" type="line"/>
      <point x="188" y="372" type="line"/>
      <point x="29" y="372" type="line"/>
      <point x="230" y="700" type="line"/>
      <point x="368" y="700" type="line"/>
    </contour>
  </outline>
</glyph>
<glyph name="underscore" format="1">
  <advance width="372"/>
  <unicode hex="005F"/>
  <outline>
    <contour>
      <point x="288" y="-186" type="line"/>
      <point x="-84" y="-186" type="line"/>
      <point x="-62" y="-64" type="line"/>
      <point x="310" y="-64" type="line"/>
    </contour>
  </outline>
</glyph>
<glyph name="grave" format="1">
  <advance width="415"/>
  <unicode hex="0060"/>
  <outline>
    <contour>
      <point x="327" y="591" type="line"/>
      <point x="221" y="591" type="line"/>
      <point x="105" y="751" type="line"/>
      <point x="283" y="751" type="line"/>
    </contour>
  </outline>
</glyph>
<glyph name="a" format="1">
  <advance width="453"/>
  <unicode hex="0061"/>
  <outline>
    <contour>
      <point x="351" y="0" type="line"/>
      <point x="200" y="0" type="line"/>
      <point x="205" y="30" type="line"/>
      <point x="178" y="7"/>
      <point x="144" y="-11"/>
      <point x="106" y="-11" type="curve" smooth="yes"/>
      <point x="35" y="-11"/>
      <point x="-12" y="31"/>
      <point x="-12" y="119" type="curve" smooth="yes"/>
      <point x="-12" y="258"/>
      <point x="66" y="339"/>
      <point x="177" y="339" type="curve" smooth="yes"/>
      <point x="214" y="339"/>
      <point x="238" y="332"/>
      <point x="257" y="322" type="curve"/>
      <point x="264" y="361" type="line" smooth="yes"/>
      <point x="265" y="367"/>
      <point x="266" y="372"/>
      <point x="266" y="377" type="curve" smooth="yes"/>
      <point x="265" y="404"/>
      <point x="248" y="415"/>
      <point x="218" y="415" type="curve" smooth="yes"/>
      <point x="183" y="415"/>
      <point x="143" y="403"/>
      <point x="94" y="375" type="curve"/>
      <point x="69" y="482" type="line"/>
      <point x="127" y="514"/>
      <point x="194" y="536"/>
      <point x="267" y="536" type="curve" smooth="yes"/>
      <point x="369" y="536"/>
      <point x="420" y="496"/>
      <point x="420" y="414" type="curve" smooth="yes"/>
      <point x="420" y="400"/>
      <point x="419" y="385"/>
      <point x="416" y="369" type="curve" smooth="yes"/>
    </contour>
    <contour>
      <point x="221" y="120" type="curve"/>
      <point x="239" y="223" type="line"/>
      <point x="228" y="230"/>
      <point x="211" y="235"/>
      <point x="193" y="235" type="curve" smooth="yes"/>
      <point x="162" y="235"/>
      <point x="135" y="203"/>
      <point x="135" y="149" type="curve" smooth="yes"/>
      <point x="135" y="118"/>
      <point x="149" y="103"/>
      <point x="174" y="103" type="curve" smooth="yes"/>
      <point x="193" y="103"/>
      <point x="207" y="110"/>
    </contour>
  </outline>
</glyph>
<glyph name="b" format="1">
  <advance width="463"/>
  <unicode hex="0062"/>
  <outline>
    <contour>
      <point x="320" y="536" type="curve" smooth="yes"/>
      <point x="388" y="536"/>
      <point x="428" y="485"/>
      <point x="428" y="380" type="curve" smooth="yes"/>
      <point x="428" y="347"/>
      <point x="425" y="309"/>
      <point x="417" y="265" type="curve" smooth="yes"/>
      <point x="381" y="65"/>
      <point x="316" y="-11"/>
      <point x="222" y="-11" type="curve" smooth="yes"/>
      <point x="182" y="-11"/>
      <point x="154" y="7"/>
      <point x="135" y="29" type="curve"/>
      <point x="130" y="0" type="line"/>
      <point x="-24" y="0" type="line"/>
      <point x="94" y="669" type="line"/>
      <point x="259" y="729" type="line"/>
      <point x="217" y="494" type="line"/>
      <point x="245" y="517"/>
      <point x="276" y="536"/>
    </contour>
    <contour>
      <point x="263" y="261" type="curve" smooth="yes"/>
      <point x="271" y="305"/>
      <point x="273" y="336"/>
      <point x="273" y="358" type="curve" smooth="yes"/>
      <point x="273" y="398"/>
      <point x="260" y="406"/>
      <point x="241" y="406" type="curve" smooth="yes"/>
      <point x="223" y="406"/>
      <point x="210" y="398"/>
      <point x="198" y="388" type="curve"/>
      <point x="154" y="138" type="line"/>
      <point x="162" y="128"/>
      <point x="175" y="119"/>
      <point x="191" y="119" type="curve" smooth="yes"/>
      <point x="218" y="119"/>
      <point x="241" y="136"/>
    </contour>
  </outline>
</glyph>
<glyph name="c" format="1">
  <advance width="419"/>
  <unicode hex="0063"/>
  <outline>
    <contour>
      <point x="371" y="143" type="line"/>
      <point x="321" y="37"/>
      <point x="264" y="-11"/>
      <point x="174" y="-11" type="curve" smooth="yes"/>
      <point x="69" y="-11"/>
      <point x="1" y="50"/>
      <point x="1" y="187" type="curve" smooth="yes"/>
      <point x="1" y="210"/>
      <point x="2" y="234"/>
      <point x="6" y="261" type="curve" smooth="yes"/>
      <point x="31" y="444"/>
      <point x="116" y="536"/>
      <point x="242" y="536" type="curve" smooth="yes"/>
      <point x="340" y="536"/>
      <point x="389" y="471"/>
      <point x="401" y="384" type="curve"/>
      <point x="274" y="328" type="line"/>
      <point x="271" y="388"/>
      <point x="258" y="407"/>
      <point x="229" y="407" type="curve" smooth="yes"/>
      <point x="194" y="407"/>
      <point x="175" y="370"/>
      <point x="159" y="261" type="curve" smooth="yes"/>
      <point x="155" y="231"/>
      <point x="152" y="207"/>
      <point x="152" y="188" type="curve" smooth="yes"/>
      <point x="151" y="136"/>
      <point x="165" y="119"/>
      <point x="192" y="119" type="curve" smooth="yes"/>
      <point x="217" y="119"/>
      <point x="239" y="139"/>
      <point x="264" y="202" type="curve"/>
    </contour>
  </outline>
</glyph>
<glyph name="d" format="1">
  <advance width="466"/>
  <unicode hex="0064"/>
  <outline>
    <contour>
      <point x="112" y="-11" type="curve" smooth="yes"/>
      <point x="43" y="-11"/>
      <point x="2" y="41"/>
      <point x="2" y="151" type="curve" smooth="yes"/>
      <point x="2" y="182"/>
      <point x="6" y="219"/>
      <point x="13" y="260" type="curve" smooth="yes"/>
      <point x="46" y="450"/>
      <point x="118" y="536"/>
      <point x="212" y="536" type="curve" smooth="yes"/>
      <point x="251" y="536"/>
      <point x="278" y="519"/>
      <point x="294" y="496" type="curve"/>
      <point x="325" y="669" type="line"/>
      <point x="490" y="729" type="line"/>
      <point x="361" y="0" type="line"/>
      <point x="207" y="0" type="line"/>
      <point x="212" y="31" type="line"/>
      <point x="188" y="6"/>
      <point x="155" y="-11"/>
    </contour>
    <contour>
      <point x="231" y="137" type="curve"/>
      <point x="275" y="387" type="line"/>
      <point x="266" y="399"/>
      <point x="255" y="406"/>
      <point x="237" y="406" type="curve" smooth="yes"/>
      <point x="208" y="406"/>
      <point x="188" y="384"/>
      <point x="167" y="264" type="curve" smooth="yes"/>
      <point x="160" y="223"/>
      <point x="157" y="198"/>
      <point x="157" y="177" type="curve" smooth="yes"/>
      <point x="156" y="128"/>
      <point x="172" y="119"/>
      <point x="192" y="119" type="curve" smooth="yes"/>
      <point x="208" y="119"/>
      <point x="221" y="127"/>
    </contour>
  </outline>
</glyph>
<glyph name="e" format="1">
  <advance width="434"/>
  <unicode hex="0065"/>
  <outline>
    <contour>
      <point x="390" y="218" type="curve"/>
      <point x="144" y="218" type="line"/>
      <point x="136" y="134"/>
      <point x="158" y="110"/>
      <point x="193" y="110" type="curve" smooth="yes"/>
      <point x="223" y="110"/>
      <point x="251" y="126"/>
      <point x="283" y="169" type="curve"/>
      <point x="364" y="97" type="line"/>
      <point x="310" y="29"/>
      <point x="257" y="-11"/>
      <point x="168" y="-11" type="curve" smooth="yes"/>
      <point x="59" y="-11"/>
      <point x="0" y="65"/>
      <point x="1" y="194" type="curve" smooth="yes"/>
      <point x="3" y="381"/>
      <point x="85" y="536"/>
      <point x="235" y="536" type="curve" smooth="yes"/>
      <point x="340" y="536"/>
      <point x="401" y="469"/>
      <point x="401" y="335" type="curve" smooth="yes"/>
      <point x="401" y="303"/>
      <point x="396" y="254"/>
    </contour>
    <contour>
      <point x="265" y="319" type="line"/>
      <point x="270" y="392"/>
      <point x="257" y="420"/>
      <point x="223" y="420" type="curve" smooth="yes"/>
      <point x="193" y="420"/>
      <point x="174" y="396"/>
      <point x="159" y="319" type="curve"/>
    </contour>
  </outline>
</glyph>
<glyph name="f" format="1">
  <advance width="304"/>
  <unicode hex="0066"/>
  <outline>
    <contour>
      <point x="341" y="599" type="line"/>
      <point x="329" y="604"/>
      <point x="314" y="607"/>
      <point x="298" y="607" type="curve" smooth="yes"/>
      <point x="276" y="607"/>
      <point x="263" y="596"/>
      <point x="259" y="573" type="curve" smooth="yes"/>
      <point x="251" y="525" type="line"/>
      <point x="318" y="525" type="line"/>
      <point x="295" y="398" type="line"/>
      <point x="229" y="398" type="line"/>
      <point x="159" y="0" type="line"/>
      <point x="8" y="0" type="line"/>
      <point x="78" y="398" type="line"/>
      <point x="32" y="398" type="line"/>
      <point x="55" y="525" type="line"/>
      <point x="101" y="525" type="line"/>
      <point x="112" y="590" type="line" smooth="yes"/>
      <point x="128" y="685"/>
      <point x="188" y="726"/>
      <point x="267" y="726" type="curve" smooth="yes"/>
      <point x="311" y="726"/>
      <point x="340" y="721"/>
      <point x="361" y="712" type="curve"/>
    </contour>
  </outline>
</glyph>
<glyph name="g" format="1">
  <advance width="466"/>
  <unicode hex="0067"/>
  <outline>
    <contour>
      <point x="112" y="-11" type="curve" smooth="yes"/>
      <point x="43" y="-11"/>
      <point x="3" y="41"/>
      <point x="2" y="149" type="curve" smooth="yes"/>
      <point x="2" y="181"/>
      <point x="6" y="218"/>
      <point x="13" y="260" type="curve" smooth="yes"/>
      <point x="46" y="450"/>
      <point x="118" y="536"/>
      <point x="212" y="536" type="curve" smooth="yes"/>
      <point x="251" y="536"/>
      <point x="276" y="520"/>
      <point x="294" y="496" type="curve"/>
      <point x="300" y="525" type="line"/>
      <point x="454" y="525" type="line"/>
      <point x="371" y="55" type="line" smooth="yes"/>
      <point x="341" y="-114"/>
      <point x="252" y="-169"/>
      <point x="80" y="-193" type="curve"/>
      <point x="52" y="-93" type="line"/>
      <point x="163" y="-73"/>
      <point x="200" y="-50"/>
      <point x="211" y="20" type="curve" smooth="yes"/>
      <point x="213" y="33" type="line"/>
      <point x="188" y="5"/>
      <point x="155" y="-11"/>
    </contour>
    <contour>
      <point x="231" y="137" type="curve"/>
      <point x="275" y="387" type="line"/>
      <point x="266" y="399"/>
      <point x="255" y="406"/>
      <point x="237" y="406" type="curve" smooth="yes"/>
      <point x="209" y="406"/>
      <point x="189" y="384"/>
      <point x="167" y="264" type="curve" smooth="yes"/>
      <point x="160" y="226"/>
      <point x="157" y="198"/>
      <point x="157" y="177" type="curve" smooth="yes"/>
      <point x="156" y="128"/>
      <point x="172" y="119"/>
      <point x="192" y="119" type="curve" smooth="yes"/>
      <point x="208" y="119"/>
      <point x="221" y="127"/>
    </contour>
  </outline>
</glyph>
<glyph name="h" format="1">
  <advance width="472"/>
  <unicode hex="0068"/>
  <outline>
    <contour>
      <point x="370" y="0" type="line"/>
      <point x="216" y="0" type="line"/>
      <point x="277" y="345" type="line" smooth="yes"/>
      <point x="278" y="353"/>
      <point x="279" y="360"/>
      <point x="279" y="366" type="curve" smooth="yes"/>
      <point x="279" y="392"/>
      <point x="267" y="404"/>
      <point x="247" y="404" type="curve" smooth="yes"/>
      <point x="227" y="404"/>
      <point x="211" y="395"/>
      <point x="198" y="384" type="curve"/>
      <point x="130" y="0" type="line"/>
      <point x="-24" y="0" type="line"/>
      <point x="94" y="669" type="line"/>
      <point x="259" y="729" type="line"/>
      <point x="217" y="495" type="line"/>
      <point x="248" y="518"/>
      <point x="281" y="536"/>
      <point x="331" y="536" type="curve" smooth="yes"/>
      <point x="394" y="536"/>
      <point x="441" y="497"/>
      <point x="440" y="415" type="curve" smooth="yes"/>
      <point x="440" y="402"/>
      <point x="439" y="387"/>
      <point x="436" y="372" type="curve" smooth="yes"/>
    </contour>
  </outline>
</glyph>
<glyph name="i" format="1">
  <advance width="242"/>
  <unicode hex="0069"/>
  <outline>
    <contour>
      <point x="258" y="654" type="curve" smooth="yes"/>
      <point x="258" y="606"/>
      <point x="223" y="574"/>
      <point x="171" y="574" type="curve" smooth="yes"/>
      <point x="120" y="574"/>
      <point x="84" y="606"/>
      <point x="84" y="654" type="curve" smooth="yes"/>
      <point x="84" y="700"/>
      <point x="120" y="732"/>
      <point x="171" y="732" type="curve" smooth="yes"/>
      <point x="223" y="732"/>
      <point x="258" y="700"/>
    </contour>
    <contour>
      <point x="134" y="0" type="line"/>
      <point x="-20" y="0" type="line"/>
      <point x="73" y="525" type="line"/>
      <point x="227" y="525" type="line"/>
    </contour>
  </outline>
</glyph>
<glyph name="j" format="1">
  <advance width="242"/>
  <unicode hex="006A"/>
  <outline>
    <contour>
      <point x="258" y="654" type="curve" smooth="yes"/>
      <point x="258" y="606"/>
      <point x="223" y="574"/>
      <point x="171" y="574" type="curve" smooth="yes"/>
      <point x="120" y="574"/>
      <point x="84" y="606"/>
      <point x="84" y="654" type="curve" smooth="yes"/>
      <point x="84" y="700"/>
      <point x="120" y="732"/>
      <point x="171" y="732" type="curve" smooth="yes"/>
      <point x="223" y="732"/>
      <point x="258" y="700"/>
    </contour>
    <contour>
      <point x="137" y="17" type="line" smooth="yes"/>
      <point x="112" y="-125"/>
      <point x="29" y="-174"/>
      <point x="-107" y="-193" type="curve"/>
      <point x="-127" y="-83" type="line"/>
      <point x="-53" y="-70"/>
      <point x="-28" y="-43"/>
      <point x="-19" y="5" type="curve" smooth="yes"/>
      <point x="73" y="525" type="line"/>
      <point x="227" y="525" type="line"/>
    </contour>
  </outline>
</glyph>
<glyph name="k" format="1">
  <advance width="452"/>
  <unicode hex="006B"/>
  <outline>
    <contour>
      <point x="384" y="0" type="line"/>
      <point x="227" y="0" type="line"/>
      <point x="202" y="232" type="line"/>
      <point x="161" y="177" type="line"/>
      <point x="130" y="0" type="line"/>
      <point x="-24" y="0" type="line"/>
      <point x="94" y="669" type="line"/>
      <point x="259" y="729" type="line"/>
      <point x="216" y="488" type="line" smooth="yes"/>
      <point x="209" y="447"/>
      <point x="195" y="384"/>
      <point x="187" y="348" type="curve"/>
      <point x="207" y="379"/>
      <point x="246" y="434"/>
      <point x="283" y="485" type="curve" smooth="yes"/>
      <point x="312" y="525" type="line"/>
      <point x="474" y="525" type="line"/>
      <point x="337" y="362" type="line"/>
    </contour>
  </outline>
</glyph>
<glyph name="l" format="1">
  <advance width="242"/>
  <unicode hex="006C"/>
  <outline>
    <contour>
      <point x="134" y="0" type="line"/>
      <point x="-20" y="0" type="line"/>
      <point x="98" y="669" type="line"/>
      <point x="263" y="729" type="line"/>
    </contour>
  </outline>
</glyph>
<glyph name="m" format="1">
  <advance width="706"/>
  <unicode hex="006D"/>
  <outline>
    <contour>
      <point x="603" y="0" type="line"/>
      <point x="449" y="0" type="line"/>
      <point x="510" y="345" type="line" smooth="yes"/>
      <point x="512" y="354"/>
      <point x="512" y="361"/>
      <point x="512" y="368" type="curve" smooth="yes"/>
      <point x="512" y="392"/>
      <point x="502" y="404"/>
      <point x="483" y="404" type="curve" smooth="yes"/>
      <point x="465" y="404"/>
      <point x="450" y="396"/>
      <point x="434" y="384" type="curve"/>
      <point x="366" y="0" type="line"/>
      <point x="213" y="0" type="line"/>
      <point x="274" y="345" type="line" smooth="yes"/>
      <point x="276" y="354"/>
      <point x="276" y="361"/>
      <point x="276" y="368" type="curve" smooth="yes"/>
      <point x="276" y="392"/>
      <point x="265" y="404"/>
      <point x="246" y="404" type="curve" smooth="yes"/>
      <point x="228" y="404"/>
      <point x="213" y="396"/>
      <point x="198" y="384" type="curve"/>
      <point x="130" y="0" type="line"/>
      <point x="-24" y="0" type="line"/>
      <point x="69" y="525" type="line"/>
      <point x="223" y="525" type="line"/>
      <point x="217" y="495" type="line"/>
      <point x="245" y="517"/>
      <point x="281" y="536"/>
      <point x="329" y="536" type="curve" smooth="yes"/>
      <point x="386" y="536"/>
      <point x="416" y="517"/>
      <point x="435" y="487" type="curve"/>
      <point x="469" y="515"/>
      <point x="511" y="536"/>
      <point x="564" y="536" type="curve" smooth="yes"/>
      <point x="635" y="536"/>
      <point x="674" y="501"/>
      <point x="674" y="426" type="curve" smooth="yes"/>
      <point x="674" y="410"/>
      <point x="673" y="392"/>
      <point x="669" y="372" type="curve" smooth="yes"/>
    </contour>
  </outline>
</glyph>
<glyph name="n" format="1">
  <advance width="472"/>
  <unicode hex="006E"/>
  <outline>
    <contour>
      <point x="370" y="0" type="line"/>
      <point x="216" y="0" type="line"/>
      <point x="277" y="345" type="line" smooth="yes"/>
      <point x="278" y="352"/>
      <point x="279" y="359"/>
      <point x="279" y="365" type="curve" smooth="yes"/>
      <point x="279" y="391"/>
      <point x="267" y="404"/>
      <point x="247" y="404" type="curve" smooth="yes"/>
      <point x="227" y="404"/>
      <point x="211" y="395"/>
      <point x="198" y="384" type="curve"/>
      <point x="130" y="0" type="line"/>
      <point x="-24" y="0" type="line"/>
      <point x="69" y="525" type="line"/>
      <point x="223" y="525" type="line"/>
      <point x="217" y="495" type="line"/>
      <point x="248" y="518"/>
      <point x="280" y="536"/>
      <point x="330" y="536" type="curve" smooth="yes"/>
      <point x="394" y="536"/>
      <point x="441" y="497"/>
      <point x="440" y="415" type="curve" smooth="yes"/>
      <point x="440" y="402"/>
      <point x="438" y="384"/>
      <point x="436" y="372" type="curve" smooth="yes"/>
    </contour>
  </outline>
</glyph>
<glyph name="o" format="1">
  <advance width="460"/>
  <unicode hex="006F"/>
  <outline>
    <contour>
      <point x="173" y="-11" type="curve" smooth="yes"/>
      <point x="63" y="-11"/>
      <point x="-1" y="59"/>
      <point x="1" y="195" type="curve" smooth="yes"/>
      <point x="4" y="387"/>
      <point x="79" y="536"/>
      <point x="246" y="536" type="curve" smooth="yes"/>
      <point x="357" y="536"/>
      <point x="421" y="468"/>
      <point x="419" y="335" type="curve" smooth="yes"/>
      <point x="415" y="120"/>
      <point x="323" y="-11"/>
    </contour>
    <contour>
      <point x="261" y="262" type="curve" smooth="yes"/>
      <point x="265" y="294"/>
      <point x="268" y="320"/>
      <point x="268" y="340" type="curve" smooth="yes"/>
      <point x="268" y="390"/>
      <point x="256" y="407"/>
      <point x="230" y="407" type="curve" smooth="yes"/>
      <point x="193" y="407"/>
      <point x="176" y="370"/>
      <point x="160" y="264" type="curve" smooth="yes"/>
      <point x="156" y="235"/>
      <point x="152" y="205"/>
      <point x="152" y="184" type="curve" smooth="yes"/>
      <point x="151" y="136"/>
      <point x="164" y="118"/>
      <point x="190" y="118" type="curve" smooth="yes"/>
      <point x="225" y="118"/>
      <point x="247" y="155"/>
    </contour>
  </outline>
</glyph>
<glyph name="p" format="1">
  <advance width="463"/>
  <unicode hex="0070"/>
  <outline>
    <contour>
      <point x="417" y="265" type="curve" smooth="yes"/>
      <point x="381" y="65"/>
      <point x="316" y="-11"/>
      <point x="222" y="-11" type="curve" smooth="yes"/>
      <point x="182" y="-11"/>
      <point x="153" y="8"/>
      <point x="135" y="29" type="curve"/>
      <point x="107" y="-133" type="line"/>
      <point x="-58" y="-193" type="line"/>
      <point x="69" y="525" type="line"/>
      <point x="223" y="525" type="line"/>
      <point x="217" y="494" type="line"/>
      <point x="247" y="518"/>
      <point x="276" y="536"/>
      <point x="320" y="536" type="curve" smooth="yes"/>
      <point x="388" y="536"/>
      <point x="428" y="485"/>
      <point x="428" y="378" type="curve" smooth="yes"/>
      <point x="428" y="346"/>
      <point x="425" y="308"/>
    </contour>
    <contour>
      <point x="263" y="261" type="curve" smooth="yes"/>
      <point x="270" y="303"/>
      <point x="274" y="333"/>
      <point x="274" y="355" type="curve" smooth="yes"/>
      <point x="273" y="398"/>
      <point x="260" y="406"/>
      <point x="241" y="406" type="curve" smooth="yes"/>
      <point x="223" y="406"/>
      <point x="210" y="398"/>
      <point x="198" y="388" type="curve"/>
      <point x="154" y="138" type="line"/>
      <point x="162" y="128"/>
      <point x="175" y="119"/>
      <point x="191" y="119" type="curve" smooth="yes"/>
      <point x="218" y="119"/>
      <point x="241" y="136"/>
    </contour>
  </outline>
</glyph>
<glyph name="q" format="1">
  <advance width="466"/>
  <unicode hex="0071"/>
  <outline>
    <contour>
      <point x="338" y="-133" type="line"/>
      <point x="173" y="-193" type="line"/>
      <point x="212" y="31" type="line"/>
      <point x="187" y="7"/>
      <point x="155" y="-11"/>
      <point x="112" y="-11" type="curve" smooth="yes"/>
      <point x="44" y="-11"/>
      <point x="3" y="40"/>
      <point x="2" y="147" type="curve" smooth="yes"/>
      <point x="2" y="179"/>
      <point x="6" y="217"/>
      <point x="13" y="260" type="curve" smooth="yes"/>
      <point x="46" y="450"/>
      <point x="118" y="536"/>
      <point x="212" y="536" type="curve" smooth="yes"/>
      <point x="251" y="536"/>
      <point x="279" y="519"/>
      <point x="294" y="496" type="curve"/>
      <point x="300" y="525" type="line"/>
      <point x="454" y="525" type="line"/>
    </contour>
    <contour>
      <point x="231" y="137" type="curve"/>
      <point x="275" y="387" type="line"/>
      <point x="266" y="399"/>
      <point x="255" y="406"/>
      <point x="237" y="406" type="curve" smooth="yes"/>
      <point x="209" y="406"/>
      <point x="189" y="384"/>
      <point x="167" y="264" type="curve" smooth="yes"/>
      <point x="160" y="226"/>
      <point x="157" y="197"/>
      <point x="157" y="176" type="curve" smooth="yes"/>
      <point x="157" y="128"/>
      <point x="172" y="119"/>
      <point x="192" y="119" type="curve" smooth="yes"/>
      <point x="208" y="119"/>
      <point x="221" y="127"/>
    </contour>
  </outline>
</glyph>
<glyph name="r" format="1">
  <advance width="345"/>
  <unicode hex="0072"/>
  <outline>
    <contour>
      <point x="374" y="522" type="curve"/>
      <point x="319" y="361" type="line"/>
      <point x="302" y="380"/>
      <point x="285" y="392"/>
      <point x="257" y="392" type="curve" smooth="yes"/>
      <point x="226" y="392"/>
      <point x="203" y="379"/>
      <point x="190" y="341" type="curve"/>
      <point x="130" y="0" type="line"/>
      <point x="-24" y="0" type="line"/>
      <point x="69" y="525" type="line"/>
      <point x="223" y="525" type="line"/>
      <point x="217" y="493" type="line"/>
      <point x="245" y="519"/>
      <point x="277" y="536"/>
      <point x="313" y="536" type="curve" smooth="yes"/>
      <point x="344" y="536"/>
      <point x="359" y="530"/>
    </contour>
  </outline>
</glyph>
<glyph name="s" format="1">
  <advance width="398"/>
  <unicode hex="0073"/>
  <outline>
    <contour>
      <point x="143" y="-11" type="curve" smooth="yes"/>
      <point x="70" y="-11"/>
      <point x="15" y="11"/>
      <point x="-35" y="57" type="curve"/>
      <point x="54" y="166" type="line"/>
      <point x="90" y="128"/>
      <point x="128" y="111"/>
      <point x="156" y="111" type="curve" smooth="yes"/>
      <point x="183" y="111"/>
      <point x="201" y="123"/>
      <point x="201" y="146" type="curve" smooth="yes"/>
      <point x="201" y="166"/>
      <point x="185" y="184"/>
      <point x="130" y="214" type="curve" smooth="yes"/>
      <point x="47" y="260"/>
      <point x="25" y="310"/>
      <point x="25" y="368" type="curve" smooth="yes"/>
      <point x="25" y="462"/>
      <point x="97" y="536"/>
      <point x="221" y="536" type="curve" smooth="yes"/>
      <point x="290" y="536"/>
      <point x="344" y="510"/>
      <point x="383" y="472" type="curve"/>
      <point x="295" y="364" type="line"/>
      <point x="258" y="404"/>
      <point x="231" y="414"/>
      <point x="205" y="414" type="curve" smooth="yes"/>
      <point x="179" y="414"/>
      <point x="167" y="399"/>
      <point x="167" y="380" type="curve" smooth="yes"/>
      <point x="167" y="358"/>
      <point x="186" y="343"/>
      <point x="232" y="317" type="curve" smooth="yes"/>
      <point x="316" y="270"/>
      <point x="347" y="225"/>
      <point x="347" y="161" type="curve" smooth="yes"/>
      <point x="347" y="57"/>
      <point x="264" y="-11"/>
    </contour>
  </outline>
</glyph>
<glyph name="t" format="1">
  <advance width="329"/>
  <unicode hex="0074"/>
  <outline>
    <contour>
      <point x="269" y="144" type="curve"/>
      <point x="229" y="10" type="line"/>
      <point x="197" y="-4"/>
      <point x="166" y="-11"/>
      <point x="126" y="-11" type="curve" smooth="yes"/>
      <point x="45" y="-11"/>
      <point x="7" y="32"/>
      <point x="24" y="129" type="curve" smooth="yes"/>
      <point x="71" y="398" type="line"/>
      <point x="13" y="398" type="line"/>
      <point x="36" y="525" type="line"/>
      <point x="94" y="525" type="line"/>
      <point x="119" y="670" type="line"/>
      <point x="280" y="729" type="line"/>
      <point x="244" y="525" type="line"/>
      <point x="333" y="525" type="line"/>
      <point x="310" y="398" type="line"/>
      <point x="221" y="398" type="line"/>
      <point x="181" y="168" type="line" smooth="yes"/>
      <point x="176" y="138"/>
      <point x="188" y="124"/>
      <point x="211" y="124" type="curve" smooth="yes"/>
      <point x="228" y="124"/>
      <point x="247" y="130"/>
    </contour>
  </outline>
</glyph>
<glyph name="u" format="1">
  <advance width="473"/>
  <unicode hex="0075"/>
  <outline>
    <contour>
      <point x="368" y="0" type="line"/>
      <point x="214" y="0" type="line"/>
      <point x="219" y="30" type="line"/>
      <point x="189" y="7"/>
      <point x="158" y="-11"/>
      <point x="109" y="-11" type="curve" smooth="yes"/>
      <point x="35" y="-11"/>
      <point x="-5" y="26"/>
      <point x="-4" y="106" type="curve" smooth="yes"/>
      <point x="-4" y="120"/>
      <point x="-2" y="136"/>
      <point x="1" y="153" type="curve" smooth="yes"/>
      <point x="67" y="525" type="line"/>
      <point x="221" y="525" type="line"/>
      <point x="160" y="180" type="line" smooth="yes"/>
      <point x="159" y="173"/>
      <point x="158" y="166"/>
      <point x="158" y="160" type="curve" smooth="yes"/>
      <point x="158" y="134"/>
      <point x="169" y="121"/>
      <point x="189" y="121" type="curve" smooth="yes"/>
      <point x="208" y="121"/>
      <point x="223" y="128"/>
      <point x="239" y="141" type="curve"/>
      <point x="307" y="525" type="line"/>
      <point x="461" y="525" type="line"/>
    </contour>
  </outline>
</glyph>
<glyph name="v" format="1">
  <advance width="439"/>
  <unicode hex="0076"/>
  <outline>
    <contour>
      <point x="464" y="525" type="line"/>
      <point x="229" y="0" type="line"/>
      <point x="75" y="0" type="line"/>
      <point x="27" y="525" type="line"/>
      <point x="188" y="525" type="line"/>
      <point x="190" y="391" type="line" smooth="yes"/>
      <point x="191" y="325"/>
      <point x="188" y="233"/>
      <point x="180" y="159" type="curve"/>
      <point x="198" y="234"/>
      <point x="228" y="324"/>
      <point x="253" y="391" type="curve" smooth="yes"/>
      <point x="303" y="525" type="line"/>
    </contour>
  </outline>
</glyph>
<glyph name="w" format="1">
  <advance width="613"/>
  <unicode hex="0077"/>
  <outline>
    <contour>
      <point x="631" y="525" type="line"/>
      <point x="430" y="0" type="line"/>
      <point x="292" y="0" type="line"/>
      <point x="292" y="90" type="line" smooth="yes"/>
      <point x="292" y="170"/>
      <point x="296" y="273"/>
      <point x="301" y="335" type="curve"/>
      <point x="283" y="273"/>
      <point x="252" y="170"/>
      <point x="223" y="89" type="curve" smooth="yes"/>
      <point x="191" y="0" type="line"/>
      <point x="56" y="0" type="line"/>
      <point x="41" y="525" type="line"/>
      <point x="186" y="525" type="line"/>
      <point x="183" y="451" type="line" smooth="yes"/>
      <point x="181" y="390"/>
      <point x="171" y="260"/>
      <point x="166" y="207" type="curve"/>
      <point x="180" y="260"/>
      <point x="222" y="389"/>
      <point x="244" y="451" type="curve" smooth="yes"/>
      <point x="270" y="525" type="line"/>
      <point x="404" y="525" type="line"/>
      <point x="404" y="451" type="line" smooth="yes"/>
      <point x="404" y="388"/>
      <point x="399" y="260"/>
      <point x="396" y="207" type="curve"/>
      <point x="409" y="260"/>
      <point x="447" y="389"/>
      <point x="465" y="451" type="curve" smooth="yes"/>
      <point x="487" y="525" type="line"/>
    </contour>
  </outline>
</glyph>
<glyph name="x" format="1">
  <advance width="455"/>
  <unicode hex="0078"/>
  <outline>
    <contour>
      <point x="380" y="0" type="line"/>
      <point x="217" y="0" type="line"/>
      <point x="207" y="50" type="line" smooth="yes"/>
      <point x="200" y="84"/>
      <point x="190" y="126"/>
      <point x="185" y="161" type="curve"/>
      <point x="168" y="126"/>
      <point x="146" y="84"/>
      <point x="127" y="50" type="curve" smooth="yes"/>
      <point x="99" y="0" type="line"/>
      <point x="-60" y="0" type="line"/>
      <point x="127" y="271" type="line"/>
      <point x="46" y="525" type="line"/>
      <point x="209" y="525" type="line"/>
      <point x="213" y="504" type="line" smooth="yes"/>
      <point x="222" y="456"/>
      <point x="228" y="415"/>
      <point x="229" y="380" type="curve"/>
      <point x="243" y="415"/>
      <point x="263" y="458"/>
      <point x="289" y="504" type="curve" smooth="yes"/>
      <point x="301" y="525" type="line"/>
      <point x="460" y="525" type="line"/>
      <point x="289" y="277" type="line"/>
    </contour>
  </outline>
</glyph>
<glyph name="y" format="1">
  <advance width="469"/>
  <unicode hex="0079"/>
  <outline>
    <contour>
      <point x="496" y="525" type="line"/>
      <point x="171" y="-185" type="line"/>
      <point x="23" y="-185" type="line"/>
      <point x="108" y="-15" type="line"/>
      <point x="49" y="525" type="line"/>
      <point x="210" y="525" type="line"/>
      <point x="212" y="394" type="line" smooth="yes"/>
      <point x="213" y="298"/>
      <point x="214" y="221"/>
      <point x="206" y="147" type="curve"/>
      <point x="225" y="221"/>
      <point x="250" y="297"/>
      <point x="287" y="395" type="curve" smooth="yes"/>
      <point x="336" y="525" type="line"/>
    </contour>
  </outline>
</glyph>
<glyph name="z" format="1">
  <advance width="426"/>
  <unicode hex="007A"/>
  <outline>
    <contour>
      <point x="336" y="0" type="line"/>
      <point x="-27" y="0" type="line"/>
      <point x="-7" y="114" type="line"/>
      <point x="130" y="280" type="line" smooth="yes"/>
      <point x="175" y="334"/>
      <point x="209" y="373"/>
      <point x="234" y="400" type="curve"/>
      <point x="205" y="399"/>
      <point x="161" y="397"/>
      <point x="125" y="397" type="curve" smooth="yes"/>
      <point x="56" y="397" type="line"/>
      <point x="79" y="525" type="line"/>
      <point x="429" y="525" type="line"/>
      <point x="408" y="411" type="line"/>
      <point x="272" y="245" type="line" smooth="yes"/>
      <point x="230" y="193"/>
      <point x="194" y="152"/>
      <point x="168" y="125" type="curve"/>
      <point x="196" y="126"/>
      <point x="241" y="128"/>
      <point x="277" y="128" type="curve" smooth="yes"/>
      <point x="359" y="128" type="line"/>
    </contour>
  </outline>
</glyph>
<glyph name="braceleft" format="1">
  <advance width="402"/>
  <unicode hex="007B"/>
  <outline>
    <contour>
      <point x="320" y="-110" type="line"/>
      <point x="160" y="-110"/>
      <point x="92" y="-61"/>
      <point x="93" y="39" type="curve" smooth="yes"/>
      <point x="93" y="54"/>
      <point x="95" y="69"/>
      <point x="98" y="86" type="curve" smooth="yes"/>
      <point x="114" y="175" type="line" smooth="yes"/>
      <point x="122" y="219"/>
      <point x="103" y="234"/>
      <point x="70" y="234" type="curve" smooth="yes"/>
      <point x="41" y="234" type="line"/>
      <point x="64" y="364" type="line"/>
      <point x="93" y="364" type="line" smooth="yes"/>
      <point x="126" y="364"/>
      <point x="151" y="380"/>
      <point x="158" y="424" type="curve" smooth="yes"/>
      <point x="173" y="512" type="line" smooth="yes"/>
      <point x="195" y="643"/>
      <point x="281" y="708"/>
      <point x="464" y="708" type="curve"/>
      <point x="444" y="595" type="line"/>
      <point x="369" y="587"/>
      <point x="347" y="563"/>
      <point x="336" y="499" type="curve" smooth="yes"/>
      <point x="328" y="451" type="line" smooth="yes"/>
      <point x="310" y="345"/>
      <point x="274" y="317"/>
      <point x="200" y="300" type="curve"/>
      <point x="268" y="281"/>
      <point x="294" y="253"/>
      <point x="274" y="147" type="curve" smooth="yes"/>
      <point x="265" y="99" type="line" smooth="yes"/>
      <point x="263" y="86"/>
      <point x="261" y="75"/>
      <point x="261" y="65" type="curve" smooth="yes"/>
      <point x="261" y="26"/>
      <point x="282" y="9"/>
      <point x="340" y="3" type="curve"/>
    </contour>
  </outline>
</glyph>
<glyph name="bar" format="1">
  <advance width="265"/>
  <unicode hex="007C"/>
  <outline>
    <contour>
      <point x="112" y="-185" type="line"/>
      <point x="-41" y="-185" type="line"/>
      <point x="133" y="800" type="line"/>
      <point x="286" y="800" type="line"/>
    </contour>
  </outline>
</glyph>
<glyph name="braceright" format="1">
  <advance width="402"/>
  <unicode hex="007D"/>
  <outline>
    <contour>
      <point x="329" y="234" type="line"/>
      <point x="300" y="234" type="line" smooth="yes"/>
      <point x="267" y="234"/>
      <point x="244" y="218"/>
      <point x="236" y="174" type="curve" smooth="yes"/>
      <point x="220" y="86" type="line" smooth="yes"/>
      <point x="196" y="-45"/>
      <point x="113" y="-110"/>
      <point x="-70" y="-110" type="curve"/>
      <point x="-50" y="3" type="line"/>
      <point x="25" y="11"/>
      <point x="45" y="35"/>
      <point x="57" y="99" type="curve" smooth="yes"/>
      <point x="66" y="147" type="line" smooth="yes"/>
      <point x="86" y="253"/>
      <point x="120" y="281"/>
      <point x="194" y="299" type="curve"/>
      <point x="126" y="317"/>
      <point x="102" y="345"/>
      <point x="120" y="451" type="curve" smooth="yes"/>
      <point x="128" y="499" type="line" smooth="yes"/>
      <point x="130" y="512"/>
      <point x="131" y="523"/>
      <point x="132" y="533" type="curve"/>
      <point x="132" y="572"/>
      <point x="112" y="589"/>
      <point x="54" y="595" type="curve"/>
      <point x="74" y="708" type="line"/>
      <point x="232" y="708"/>
      <point x="298" y="660"/>
      <point x="299" y="562" type="curve" smooth="yes"/>
      <point x="299" y="547"/>
      <point x="298" y="530"/>
      <point x="295" y="512" type="curve" smooth="yes"/>
      <point x="280" y="424" type="line" smooth="yes"/>
      <point x="272" y="380"/>
      <point x="290" y="364"/>
      <point x="323" y="364" type="curve" smooth="yes"/>
      <point x="352" y="364" type="line"/>
    </contour>
  </outline>
</glyph>
<glyph name="asciitilde" format="1">
  <advance width="478"/>
  <unicode hex="007E"/>
  <outline>
    <contour>
      <point x="471" y="437" type="line"/>
      <point x="417" y="319"/>
      <point x="372" y="279"/>
      <point x="310" y="279" type="curve" smooth="yes"/>
      <point x="275" y="279"/>
      <point x="255" y="293"/>
      <point x="225" y="315" type="curve" smooth="yes"/>
      <point x="209" y="327"/>
      <point x="191" y="340"/>
      <point x="180" y="340" type="curve" smooth="yes"/>
      <point x="165" y="340"/>
      <point x="147" y="326"/>
      <point x="123" y="275" type="curve"/>
      <point x="28" y="309" type="line"/>
      <point x="87" y="427"/>
      <point x="127" y="466"/>
      <point x="189" y="466" type="curve" smooth="yes"/>
      <point x="231" y="466"/>
      <point x="246" y="453"/>
      <point x="275" y="431" type="curve" smooth="yes"/>
      <point x="300" y="412"/>
      <point x="309" y="406"/>
      <point x="320" y="406" type="curve" smooth="yes"/>
      <point x="335" y="406"/>
      <point x="350" y="419"/>
      <point x="376" y="470" type="curve"/>
    </contour>
  </outline>
</glyph>
<glyph name="cent" format="1">
  <advance width="429"/>
  <unicode hex="00A2"/>
  <outline>
    <contour>
      <point x="403" y="236" type="line"/>
      <point x="365" y="159"/>
      <point x="321" y="115"/>
      <point x="269" y="95" type="curve"/>
      <point x="250" y="-11" type="line"/>
      <point x="99" y="-11" type="line"/>
      <point x="118" y="96" type="line"/>
      <point x="64" y="120"/>
      <point x="32" y="174"/>
      <point x="33" y="262" type="curve" smooth="yes"/>
      <point x="34" y="407"/>
      <point x="89" y="582"/>
      <point x="210" y="618" type="curve"/>
      <point x="226" y="711" type="line"/>
      <point x="377" y="711" type="line"/>
      <point x="361" y="617" type="line"/>
      <point x="411" y="595"/>
      <point x="433" y="545"/>
      <point x="442" y="477" type="curve"/>
      <point x="310" y="419" type="line"/>
      <point x="307" y="477"/>
      <point x="298" y="500"/>
      <point x="268" y="500" type="curve" smooth="yes"/>
      <point x="216" y="500"/>
      <point x="188" y="360"/>
      <point x="186" y="272" type="curve" smooth="yes"/>
      <point x="185" y="228"/>
      <point x="200" y="211"/>
      <point x="225" y="211" type="curve" smooth="yes"/>
      <point x="250" y="211"/>
      <point x="269" y="231"/>
      <point x="298" y="295" type="curve"/>
    </contour>
  </outline>
</glyph>
<glyph name="sterling" format="1">
  <advance width="532"/>
  <unicode hex="00A3"/>
  <outline>
    <contour>
      <point x="553" y="577" type="curve"/>
      <point x="434" y="499" type="line"/>
      <point x="411" y="553"/>
      <point x="384" y="575"/>
      <point x="339" y="575" type="curve" smooth="yes"/>
      <point x="292" y="575"/>
      <point x="269" y="540"/>
      <point x="269" y="501" type="curve" smooth="yes"/>
      <point x="269" y="485"/>
      <point x="272" y="469"/>
      <point x="275" y="457" type="curve" smooth="yes"/>
      <point x="281" y="434"/>
      <point x="288" y="410"/>
      <point x="291" y="385" type="curve"/>
      <point x="408" y="385" type="line"/>
      <point x="387" y="265" type="line"/>
      <point x="276" y="265" type="line"/>
      <point x="260" y="209"/>
      <point x="236" y="174"/>
      <point x="203" y="134" type="curve"/>
      <point x="464" y="134" type="line"/>
      <point x="440" y="0" type="line"/>
      <point x="4" y="0" type="line"/>
      <point x="25" y="119" type="line"/>
      <point x="74" y="163"/>
      <point x="106" y="199"/>
      <point x="125" y="265" type="curve"/>
      <point x="56" y="265" type="line"/>
      <point x="77" y="385" type="line"/>
      <point x="134" y="385" type="line"/>
      <point x="131" y="401"/>
      <point x="127" y="416"/>
      <point x="121" y="433" type="curve" smooth="yes"/>
      <point x="116" y="448"/>
      <point x="111" y="473"/>
      <point x="111" y="501" type="curve" smooth="yes"/>
      <point x="111" y="612"/>
      <point x="184" y="711"/>
      <point x="346" y="711" type="curve" smooth="yes"/>
      <point x="444" y="711"/>
      <point x="522" y="665"/>
    </contour>
  </outline>
</glyph>
<glyph name="yen" format="1">
  <advance width="553"/>
  <unicode hex="00A5"/>
  <outline>
    <contour>
      <point x="585" y="700" type="line"/>
      <point x="323" y="264" type="line"/>
      <point x="317" y="232" type="line"/>
      <point x="439" y="232" type="line"/>
      <point x="416" y="100" type="line"/>
      <point x="294" y="100" type="line"/>
      <point x="276" y="0" type="line"/>
      <point x="116" y="0" type="line"/>
      <point x="134" y="100" type="line"/>
      <point x="12" y="100" type="line"/>
      <point x="35" y="232" type="line"/>
      <point x="157" y="232" type="line"/>
      <point x="162" y="260" type="line"/>
      <point x="52" y="700" type="line"/>
      <point x="237" y="700" type="line"/>
      <point x="253" y="607" type="line" smooth="yes"/>
      <point x="266" y="529"/>
      <point x="270" y="459"/>
      <point x="268" y="405" type="curve"/>
      <point x="286" y="459"/>
      <point x="316" y="532"/>
      <point x="355" y="607" type="curve" smooth="yes"/>
      <point x="403" y="700" type="line"/>
    </contour>
  </outline>
</glyph>
<glyph name="section" format="1">
  <advance width="566"/>
  <unicode hex="00A7"/>
  <outline>
    <contour>
      <point x="409" y="106" type="curve"/>
      <point x="417" y="88"/>
      <point x="421" y="67"/>
      <point x="421" y="43" type="curve" smooth="yes"/>
      <point x="421" y="-64"/>
      <point x="350" y="-164"/>
      <point x="200" y="-164" type="curve" smooth="yes"/>
      <point x="108" y="-164"/>
      <point x="39" y="-113"/>
      <point x="17" y="-38" type="curve"/>
      <point x="124" y="38" type="line"/>
      <point x="147" y="-8"/>
      <point x="176" y="-34"/>
      <point x="221" y="-34" type="curve" smooth="yes"/>
      <point x="253" y="-34"/>
      <point x="271" y="-16"/>
      <point x="271" y="12" type="curve" smooth="yes"/>
      <point x="271" y="35"/>
      <point x="258" y="53"/>
      <point x="211" y="74" type="curve" smooth="yes"/>
      <point x="88" y="128"/>
      <point x="34" y="171"/>
      <point x="35" y="259" type="curve" smooth="yes"/>
      <point x="36" y="349"/>
      <point x="84" y="402"/>
      <point x="144" y="441" type="curve"/>
      <point x="135" y="461"/>
      <point x="130" y="482"/>
      <point x="130" y="508" type="curve" smooth="yes"/>
      <point x="130" y="607"/>
      <point x="195" y="711"/>
      <point x="344" y="711" type="curve" smooth="yes"/>
      <point x="436" y="711"/>
      <point x="510" y="664"/>
      <point x="532" y="585" type="curve"/>
      <point x="426" y="509" type="line"/>
      <point x="404" y="555"/>
      <point x="372" y="581"/>
      <point x="331" y="581" type="curve" smooth="yes"/>
      <point x="294" y="581"/>
      <point x="278" y="559"/>
      <point x="278" y="532" type="curve" smooth="yes"/>
      <point x="278" y="511"/>
      <point x="290" y="493"/>
      <point x="338" y="473" type="curve" smooth="yes"/>
      <point x="463" y="419"/>
      <point x="515" y="371"/>
      <point x="515" y="287" type="curve" smooth="yes"/>
      <point x="515" y="205"/>
      <point x="469" y="152"/>
    </contour>
    <contour>
      <point x="359" y="258" type="curve" smooth="yes"/>
      <point x="359" y="291"/>
      <point x="337" y="312"/>
      <point x="272" y="339" type="curve" smooth="yes"/>
      <point x="254" y="347"/>
      <point x="236" y="353"/>
      <point x="224" y="360" type="curve"/>
      <point x="204" y="340"/>
      <point x="191" y="320"/>
      <point x="191" y="290" type="curve" smooth="yes"/>
      <point x="190" y="255"/>
      <point x="209" y="237"/>
      <point x="280" y="206" type="curve" smooth="yes"/>
      <point x="296" y="199"/>
      <point x="313" y="194"/>
      <point x="326" y="187" type="curve"/>
      <point x="346" y="207"/>
      <point x="359" y="228"/>
    </contour>
  </outline>
</glyph>
<glyph name="dieresis" format="1">
  <advance width="415"/>
  <unicode hex="00A8"/>
  <outline>
    <contour>
      <point x="441" y="664" type="curve" smooth="yes"/>
      <point x="441" y="622"/>
      <point x="404" y="586"/>
      <point x="362" y="586" type="curve" smooth="yes"/>
      <point x="319" y="586"/>
      <point x="283" y="622"/>
      <point x="283" y="664" type="curve" smooth="yes"/>
      <point x="283" y="707"/>
      <point x="319" y="742"/>
      <point x="362" y="742" type="curve" smooth="yes"/>
      <point x="404" y="742"/>
      <point x="441" y="707"/>
    </contour>
    <contour>
      <point x="240" y="664" type="curve" smooth="yes"/>
      <point x="240" y="622"/>
      <point x="203" y="586"/>
      <point x="161" y="586" type="curve" smooth="yes"/>
      <point x="118" y="586"/>
      <point x="82" y="622"/>
      <point x="82" y="664" type="curve" smooth="yes"/>
      <point x="82" y="707"/>
      <point x="118" y="742"/>
      <point x="161" y="742" type="curve" smooth="yes"/>
      <point x="203" y="742"/>
      <point x="240" y="707"/>
    </contour>
  </outline>
</glyph>
<glyph name="copyright" format="1">
  <advance width="659"/>
  <unicode hex="00A9"/>
  <outline>
    <contour>
      <point x="620" y="350" type="curve" smooth="yes"/>
      <point x="620" y="140"/>
      <point x="505" y="-11"/>
      <point x="329" y="-11" type="curve" smooth="yes"/>
      <point x="154" y="-11"/>
      <point x="39" y="140"/>
      <point x="39" y="350" type="curve" smooth="yes"/>
      <point x="39" y="560"/>
      <point x="154" y="711"/>
      <point x="329" y="711" type="curve" smooth="yes"/>
      <point x="505" y="711"/>
      <point x="620" y="560"/>
    </contour>
    <contour>
      <point x="553" y="350" type="curve" smooth="yes"/>
      <point x="553" y="526"/>
      <point x="469" y="648"/>
      <point x="329" y="648" type="curve" smooth="yes"/>
      <point x="190" y="648"/>
      <point x="106" y="526"/>
      <point x="106" y="350" type="curve" smooth="yes"/>
      <point x="106" y="174"/>
      <point x="190" y="52"/>
      <point x="329" y="52" type="curve" smooth="yes"/>
      <point x="469" y="52"/>
      <point x="553" y="174"/>
    </contour>
    <contour>
      <point x="459" y="265" type="line"/>
      <point x="441" y="193"/>
      <point x="408" y="149"/>
      <point x="330" y="149" type="curve" smooth="yes"/>
      <point x="237" y="149"/>
      <point x="190" y="219"/>
      <point x="190" y="352" type="curve" smooth="yes"/>
      <point x="190" y="490"/>
      <point x="243" y="557"/>
      <point x="330" y="557" type="curve" smooth="yes"/>
      <point x="414" y="557"/>
      <point x="442" y="509"/>
      <point x="458" y="433" type="curve"/>
      <point x="370" y="409" type="line"/>
      <point x="361" y="456"/>
      <point x="355" y="476"/>
      <point x="330" y="476" type="curve" smooth="yes"/>
      <point x="299" y="476"/>
      <point x="288" y="444"/>
      <point x="288" y="353" type="curve" smooth="yes"/>
      <point x="288" y="262"/>
      <point x="300" y="230"/>
      <point x="331" y="230" type="curve" smooth="yes"/>
      <point x="353" y="230"/>
      <point x="363" y="244"/>
      <point x="375" y="295" type="curve"/>
    </contour>
  </outline>
</glyph>
<glyph name="ordfeminine" format="1">
  <advance width="407"/>
  <unicode hex="00AA"/>
  <outline>
    <contour>
      <point x="343" y="279" type="line"/>
      <point x="221" y="279" type="line"/>
      <point x="225" y="303" type="line"/>
      <point x="200" y="283"/>
      <point x="171" y="271"/>
      <point x="138" y="271" type="curve" smooth="yes"/>
      <point x="86" y="271"/>
      <point x="49" y="307"/>
      <point x="50" y="373" type="curve" smooth="yes"/>
      <point x="51" y="483"/>
      <point x="113" y="553"/>
      <point x="203" y="553" type="curve" smooth="yes"/>
      <point x="233" y="553"/>
      <point x="251" y="547"/>
      <point x="267" y="538" type="curve"/>
      <point x="273" y="572" type="line"/>
      <point x="273" y="574"/>
      <point x="274" y="580"/>
      <point x="274" y="583" type="curve" smooth="yes"/>
      <point x="274" y="602"/>
      <point x="261" y="613"/>
      <point x="237" y="613" type="curve" smooth="yes"/>
      <point x="204" y="613"/>
      <point x="176" y="604"/>
      <point x="135" y="581" type="curve"/>
      <point x="116" y="668" type="line"/>
      <point x="162" y="693"/>
      <point x="217" y="711"/>
      <point x="276" y="711" type="curve" smooth="yes"/>
      <point x="355" y="711"/>
      <point x="399" y="677"/>
      <point x="399" y="611" type="curve" smooth="yes"/>
      <point x="399" y="600"/>
      <point x="398" y="589"/>
      <point x="396" y="576" type="curve" smooth="yes"/>
    </contour>
    <contour>
      <point x="238" y="376" type="curve"/>
      <point x="253" y="460" type="line"/>
      <point x="243" y="465"/>
      <point x="232" y="469"/>
      <point x="215" y="469" type="curve" smooth="yes"/>
      <point x="190" y="469"/>
      <point x="169" y="445"/>
      <point x="168" y="398" type="curve" smooth="yes"/>
      <point x="167" y="374"/>
      <point x="179" y="362"/>
      <point x="200" y="362" type="curve" smooth="yes"/>
      <point x="216" y="362"/>
      <point x="228" y="368"/>
    </contour>
  </outline>
</glyph>
<glyph name="guillemotleft" format="1">
  <advance width="572"/>
  <unicode hex="00AB"/>
  <outline>
    <contour>
      <point x="488" y="0" type="line"/>
      <point x="330" y="0" type="line"/>
      <point x="262" y="262" type="line"/>
      <point x="423" y="525" type="line"/>
      <point x="581" y="525" type="line"/>
      <point x="421" y="263" type="line"/>
    </contour>
    <contour>
      <point x="243" y="0" type="line"/>
      <point x="85" y="0" type="line"/>
      <point x="17" y="262" type="line"/>
      <point x="178" y="525" type="line"/>
      <point x="336" y="525" type="line"/>
      <point x="176" y="263" type="line"/>
    </contour>
  </outline>
</glyph>
<glyph name="degree" format="1">
  <advance width="442"/>
  <unicode hex="00B0"/>
  <outline>
    <contour>
      <point x="440" y="524" type="curve" smooth="yes"/>
      <point x="440" y="415"/>
      <point x="360" y="335"/>
      <point x="254" y="335" type="curve" smooth="yes"/>
      <point x="148" y="335"/>
      <point x="68" y="415"/>
      <point x="68" y="524" type="curve" smooth="yes"/>
      <point x="68" y="631"/>
      <point x="148" y="711"/>
      <point x="254" y="711" type="curve" smooth="yes"/>
      <point x="360" y="711"/>
      <point x="440" y="631"/>
    </contour>
    <contour>
      <point x="332" y="524" type="curve" smooth="yes"/>
      <point x="332" y="575"/>
      <point x="300" y="609"/>
      <point x="254" y="609" type="curve" smooth="yes"/>
      <point x="209" y="609"/>
      <point x="176" y="575"/>
      <point x="176" y="524" type="curve" smooth="yes"/>
      <point x="176" y="471"/>
      <point x="209" y="437"/>
      <point x="254" y="437" type="curve" smooth="yes"/>
      <point x="300" y="437"/>
      <point x="332" y="471"/>
    </contour>
  </outline>
</glyph>
<glyph name="acute" format="1">
  <advance width="415"/>
  <unicode hex="00B4"/>
  <outline>
    <contour>
      <point x="491" y="751" type="line"/>
      <point x="321" y="591" type="line"/>
      <point x="213" y="591" type="line"/>
      <point x="313" y="751" type="line"/>
    </contour>
  </outline>
</glyph>
<glyph name="paragraph" format="1">
  <advance width="612"/>
  <unicode hex="00B6"/>
  <outline>
    <contour>
      <point x="449" y="-185" type="line"/>
      <point x="330" y="-185" type="line"/>
      <point x="468" y="598" type="line"/>
      <point x="414" y="598" type="line"/>
      <point x="276" y="-185" type="line"/>
      <point x="157" y="-185" type="line"/>
      <point x="240" y="283" type="line"/>
      <point x="212" y="283" type="line" smooth="yes"/>
      <point x="111" y="283"/>
      <point x="46" y="342"/>
      <point x="46" y="455" type="curve" smooth="yes"/>
      <point x="46" y="614"/>
      <point x="169" y="700"/>
      <point x="290" y="700" type="curve" smooth="yes"/>
      <point x="605" y="700" type="line"/>
    </contour>
  </outline>
</glyph>
<glyph name="cedilla" format="1">
  <advance width="415"/>
  <unicode hex="00B8"/>
  <outline>
    <contour>
      <point x="146" y="-193" type="curve" smooth="yes"/>
      <point x="99" y="-193"/>
      <point x="60" y="-178"/>
      <point x="30" y="-160" type="curve"/>
      <point x="57" y="-119" type="line"/>
      <point x="86" y="-135"/>
      <point x="110" y="-142"/>
      <point x="136" y="-142" type="curve" smooth="yes"/>
      <point x="163" y="-142"/>
      <point x="183" y="-132"/>
      <point x="184" y="-108" type="curve" smooth="yes"/>
      <point x="184" y="-94"/>
      <point x="174" y="-87"/>
      <point x="162" y="-87" type="curve" smooth="yes"/>
      <point x="150" y="-87"/>
      <point x="141" y="-91"/>
      <point x="129" y="-98" type="curve"/>
      <point x="97" y="-74" type="line"/>
      <point x="134" y="0" type="line"/>
      <point x="187" y="0" type="line"/>
      <point x="165" y="-45" type="line"/>
      <point x="175" y="-40"/>
      <point x="192" y="-36"/>
      <point x="209" y="-36" type="curve" smooth="yes"/>
      <point x="243" y="-36"/>
      <point x="268" y="-60"/>
      <point x="268" y="-100" type="curve" smooth="yes"/>
      <point x="268" y="-164"/>
      <point x="216" y="-193"/>
    </contour>
  </outline>
</glyph>
<glyph name="ordmasculine" format="1">
  <advance width="410"/>
  <unicode hex="00BA"/>
  <outline>
    <contour>
      <point x="395" y="492" type="curve" smooth="yes"/>
      <point x="374" y="347"/>
      <point x="312" y="271"/>
      <point x="206" y="271" type="curve" smooth="yes"/>
      <point x="117" y="271"/>
      <point x="63" y="327"/>
      <point x="63" y="436" type="curve" smooth="yes"/>
      <point x="63" y="453"/>
      <point x="63" y="471"/>
      <point x="66" y="490" type="curve" smooth="yes"/>
      <point x="86" y="633"/>
      <point x="148" y="711"/>
      <point x="257" y="711" type="curve" smooth="yes"/>
      <point x="345" y="711"/>
      <point x="399" y="656"/>
      <point x="399" y="550" type="curve" smooth="yes"/>
      <point x="399" y="532"/>
      <point x="398" y="513"/>
    </contour>
    <contour>
      <point x="272" y="491" type="curve" smooth="yes"/>
      <point x="275" y="517"/>
      <point x="277" y="538"/>
      <point x="277" y="554" type="curve" smooth="yes"/>
      <point x="277" y="594"/>
      <point x="267" y="608"/>
      <point x="247" y="608" type="curve" smooth="yes"/>
      <point x="218" y="608"/>
      <point x="203" y="579"/>
      <point x="190" y="492" type="curve" smooth="yes"/>
      <point x="186" y="464"/>
      <point x="184" y="442"/>
      <point x="184" y="425" type="curve" smooth="yes"/>
      <point x="184" y="388"/>
      <point x="193" y="374"/>
      <point x="214" y="374" type="curve" smooth="yes"/>
      <point x="243" y="374"/>
      <point x="260" y="404"/>
    </contour>
  </outline>
</glyph>
<glyph name="guillemotright" format="1">
  <advance width="572"/>
  <unicode hex="00BB"/>
  <outline>
    <contour>
      <point x="532" y="263" type="line"/>
      <point x="373" y="0" type="line"/>
      <point x="214" y="0" type="line"/>
      <point x="373" y="262" type="line"/>
      <point x="307" y="525" type="line"/>
      <point x="466" y="525" type="line"/>
    </contour>
    <contour>
      <point x="287" y="263" type="line"/>
      <point x="128" y="0" type="line"/>
      <point x="-31" y="0" type="line"/>
      <point x="128" y="262" type="line"/>
      <point x="62" y="525" type="line"/>
      <point x="221" y="525" type="line"/>
    </contour>
  </outline>
</glyph>
<glyph name="Aring" format="1">
  <advance width="569"/>
  <unicode hex="00C5"/>
  <outline>
    <contour>
      <point x="431" y="666" type="curve"/>
      <point x="485" y="0" type="line"/>
      <point x="313" y="0" type="line"/>
      <point x="310" y="130" type="line"/>
      <point x="172" y="130" type="line"/>
      <point x="124" y="0" type="line"/>
      <point x="-48" y="0" type="line"/>
      <point x="248" y="681" type="line"/>
      <point x="232" y="701"/>
      <point x="223" y="727"/>
      <point x="223" y="755" type="curve" smooth="yes"/>
      <point x="223" y="825"/>
      <point x="277" y="877"/>
      <point x="346" y="877" type="curve" smooth="yes"/>
      <point x="416" y="877"/>
      <point x="469" y="825"/>
      <point x="469" y="755" type="curve" smooth="yes"/>
      <point x="469" y="719"/>
      <point x="455" y="688"/>
    </contour>
    <contour>
      <point x="394" y="755" type="curve" smooth="yes"/>
      <point x="394" y="785"/>
      <point x="374" y="807"/>
      <point x="346" y="807" type="curve" smooth="yes"/>
      <point x="318" y="807"/>
      <point x="299" y="785"/>
      <point x="299" y="755" type="curve" smooth="yes"/>
      <point x="299" y="725"/>
      <point x="318" y="704"/>
      <point x="346" y="704" type="curve" smooth="yes"/>
      <point x="374" y="704"/>
      <point x="394" y="725"/>
    </contour>
    <contour>
      <point x="306" y="266" type="line"/>
      <point x="306" y="289" type="line" smooth="yes"/>
      <point x="306" y="381"/>
      <point x="305" y="457"/>
      <point x="309" y="521" type="curve"/>
      <point x="292" y="457"/>
      <point x="265" y="383"/>
      <point x="231" y="288" type="curve" smooth="yes"/>
      <point x="223" y="266" type="line"/>
    </contour>
  </outline>
</glyph>
<glyph name="AE" format="1">
  <advance width="767"/>
  <unicode hex="00C6"/>
  <outline>
    <contour>
      <point x="680" y="0" type="line"/>
      <point x="286" y="0" type="line"/>
      <point x="305" y="106" type="line"/>
      <point x="145" y="106" type="line"/>
      <point x="90" y="0" type="line"/>
      <point x="-79" y="0" type="line"/>
      <point x="352" y="700" type="line"/>
      <point x="796" y="700" type="line"/>
      <point x="771" y="557" type="line"/>
      <point x="537" y="557" type="line"/>
      <point x="516" y="437" type="line"/>
      <point x="665" y="437" type="line"/>
      <point x="640" y="295" type="line"/>
      <point x="491" y="295" type="line"/>
      <point x="464" y="143" type="line"/>
      <point x="705" y="143" type="line"/>
    </contour>
    <contour>
      <point x="383" y="536" type="curve"/>
      <point x="362" y="496"/>
      <point x="329" y="443"/>
      <point x="305" y="397" type="curve" smooth="yes"/>
      <point x="224" y="239" type="line"/>
      <point x="328" y="239" type="line"/>
      <point x="357" y="402" type="line" smooth="yes"/>
      <point x="364" y="444"/>
      <point x="377" y="508"/>
    </contour>
  </outline>
</glyph>
<glyph name="Ccedilla" format="1">
  <advance width="516"/>
  <unicode hex="00C7"/>
  <outline>
    <contour>
      <point x="189" y="-8" type="line"/>
      <point x="78" y="9"/>
      <point x="22" y="96"/>
      <point x="24" y="248" type="curve" smooth="yes"/>
      <point x="24" y="279"/>
      <point x="27" y="313"/>
      <point x="32" y="349" type="curve" smooth="yes"/>
      <point x="66" y="592"/>
      <point x="172" y="711"/>
      <point x="328" y="711" type="curve" smooth="yes"/>
      <point x="475" y="711"/>
      <point x="518" y="627"/>
      <point x="526" y="493" type="curve"/>
      <point x="361" y="450" type="line"/>
      <point x="363" y="530"/>
      <point x="351" y="566"/>
      <point x="311" y="567" type="curve" smooth="yes"/>
      <point x="260" y="568"/>
      <point x="228" y="512"/>
      <point x="205" y="351" type="curve" smooth="yes"/>
      <point x="198" y="304"/>
      <point x="195" y="266"/>
      <point x="194" y="235" type="curve" smooth="yes"/>
      <point x="193" y="161"/>
      <point x="211" y="133"/>
      <point x="251" y="133" type="curve" smooth="yes"/>
      <point x="290" y="133"/>
      <point x="321" y="170"/>
      <point x="341" y="246" type="curve"/>
      <point x="486" y="194" type="line"/>
      <point x="440" y="70"/>
      <point x="373" y="-7"/>
      <point x="241" y="-11" type="curve"/>
      <point x="224" y="-45" type="line"/>
      <point x="234" y="-40"/>
      <point x="251" y="-36"/>
      <point x="268" y="-36" type="curve" smooth="yes"/>
      <point x="302" y="-36"/>
      <point x="327" y="-60"/>
      <point x="327" y="-100" type="curve" smooth="yes"/>
      <point x="327" y="-164"/>
      <point x="275" y="-193"/>
      <point x="205" y="-193" type="curve" smooth="yes"/>
      <point x="158" y="-193"/>
      <point x="119" y="-178"/>
      <point x="89" y="-160" type="curve"/>
      <point x="116" y="-119" type="line"/>
      <point x="145" y="-135"/>
      <point x="169" y="-142"/>
      <point x="195" y="-142" type="curve" smooth="yes"/>
      <point x="222" y="-142"/>
      <point x="243" y="-131"/>
      <point x="243" y="-108" type="curve" smooth="yes"/>
      <point x="243" y="-94"/>
      <point x="233" y="-87"/>
      <point x="221" y="-87" type="curve" smooth="yes"/>
      <point x="209" y="-87"/>
      <point x="200" y="-91"/>
      <point x="188" y="-98" type="curve"/>
      <point x="156" y="-74" type="line"/>
    </contour>
  </outline>
</glyph>
<glyph name="Eth" format="1">
  <advance width="558"/>
  <unicode hex="00D0"/>
  <outline>
    <contour>
      <point x="41" y="298" type="line"/>
      <point x="1" y="298" type="line"/>
      <point x="23" y="428" type="line"/>
      <point x="64" y="428" type="line"/>
      <point x="112" y="700" type="line"/>
      <point x="315" y="700" type="line" smooth="yes"/>
      <point x="496" y="700"/>
      <point x="563" y="595"/>
      <point x="525" y="355" type="curve" smooth="yes"/>
      <point x="485" y="102"/>
      <point x="367" y="0"/>
      <point x="177" y="0" type="curve" smooth="yes"/>
      <point x="-11" y="0" type="line"/>
    </contour>
    <contour>
      <point x="231" y="428" type="line"/>
      <point x="289" y="428" type="line"/>
      <point x="267" y="298" type="line"/>
      <point x="208" y="298" type="line"/>
      <point x="180" y="138" type="line"/>
      <point x="206" y="138" type="line" smooth="yes"/>
      <point x="284" y="138"/>
      <point x="324" y="175"/>
      <point x="353" y="352" type="curve" smooth="yes"/>
      <point x="381" y="524"/>
      <point x="360" y="561"/>
      <point x="285" y="561" type="curve" smooth="yes"/>
      <point x="255" y="561" type="line"/>
    </contour>
  </outline>
</glyph>
<glyph name="Oslash" format="1">
  <advance width="561"/>
  <unicode hex="00D8"/>
  <outline>
    <contour>
      <point x="157" y="-1" type="curve"/>
      <point x="128" y="-50" type="line"/>
      <point x="-39" y="-50" type="line"/>
      <point x="48" y="96" type="line"/>
      <point x="32" y="132"/>
      <point x="24" y="178"/>
      <point x="23" y="233" type="curve" smooth="yes"/>
      <point x="23" y="268"/>
      <point x="26" y="306"/>
      <point x="32" y="349" type="curve" smooth="yes"/>
      <point x="68" y="595"/>
      <point x="175" y="711"/>
      <point x="332" y="711" type="curve" smooth="yes"/>
      <point x="359" y="711"/>
      <point x="384" y="708"/>
      <point x="406" y="701" type="curve"/>
      <point x="435" y="750" type="line"/>
      <point x="602" y="750" type="line"/>
      <point x="513" y="601" type="line"/>
      <point x="529" y="563"/>
      <point x="538" y="516"/>
      <point x="538" y="459" type="curve" smooth="yes"/>
      <point x="538" y="426"/>
      <point x="535" y="390"/>
      <point x="529" y="351" type="curve" smooth="yes"/>
      <point x="494" y="104"/>
      <point x="386" y="-11"/>
      <point x="228" y="-11" type="curve" smooth="yes"/>
      <point x="202" y="-11"/>
      <point x="178" y="-8"/>
    </contour>
    <contour>
      <point x="357" y="349" type="curve" smooth="yes"/>
      <point x="364" y="400"/>
      <point x="368" y="440"/>
      <point x="368" y="471" type="curve" smooth="yes"/>
      <point x="367" y="543"/>
      <point x="348" y="567"/>
      <point x="311" y="567" type="curve" smooth="yes"/>
      <point x="258" y="567"/>
      <point x="228" y="520"/>
      <point x="204" y="351" type="curve" smooth="yes"/>
      <point x="197" y="303"/>
      <point x="193" y="265"/>
      <point x="193" y="235" type="curve" smooth="yes"/>
      <point x="192" y="158"/>
      <point x="213" y="133"/>
      <point x="250" y="133" type="curve" smooth="yes"/>
      <point x="302" y="133"/>
      <point x="333" y="180"/>
    </contour>
  </outline>
</glyph>
<glyph name="Thorn" format="1">
  <advance width="526"/>
  <unicode hex="00DE"/>
  <outline>
    <contour>
      <point x="329" y="585" type="line" smooth="yes"/>
      <point x="438" y="585"/>
      <point x="517" y="542"/>
      <point x="517" y="423" type="curve" smooth="yes"/>
      <point x="517" y="227"/>
      <point x="393" y="139"/>
      <point x="243" y="139" type="curve" smooth="yes"/>
      <point x="183" y="139" type="line"/>
      <point x="158" y="0" type="line"/>
      <point x="-11" y="0" type="line"/>
      <point x="112" y="700" type="line"/>
      <point x="276" y="700" type="line"/>
      <point x="261" y="585" type="line"/>
    </contour>
    <contour>
      <point x="348" y="394" type="curve" smooth="yes"/>
      <point x="348" y="432"/>
      <point x="330" y="449"/>
      <point x="292" y="449" type="curve" smooth="yes"/>
      <point x="237" y="449" type="line"/>
      <point x="207" y="275" type="line"/>
      <point x="261" y="275" type="line" smooth="yes"/>
      <point x="319" y="275"/>
      <point x="348" y="318"/>
    </contour>
  </outline>
</glyph>
<glyph name="germandbls" format="1">
  <advance width="494"/>
  <unicode hex="00DF"/>
  <outline>
    <contour>
      <point x="181" y="0" type="curve" smooth="yes"/>
      <point x="168" y="0" type="line"/>
      <point x="190" y="126" type="line"/>
      <point x="199" y="126" type="line" smooth="yes"/>
      <point x="266" y="126"/>
      <point x="285" y="203"/>
      <point x="286" y="269" type="curve" smooth="yes"/>
      <point x="287" y="316"/>
      <point x="266" y="332"/>
      <point x="232" y="332" type="curve" smooth="yes"/>
      <point x="227" y="332" type="line"/>
      <point x="248" y="455" type="line"/>
      <point x="253" y="455" type="line" smooth="yes"/>
      <point x="288" y="455"/>
      <point x="301" y="506"/>
      <point x="302" y="555" type="curve" smooth="yes"/>
      <point x="303" y="585"/>
      <point x="292" y="599"/>
      <point x="273" y="599" type="curve" smooth="yes"/>
      <point x="243" y="599"/>
      <point x="230" y="577"/>
      <point x="221" y="527" type="curve" smooth="yes"/>
      <point x="105" y="-133" type="line"/>
      <point x="-57" y="-193" type="line"/>
      <point x="69" y="521" type="line" smooth="yes"/>
      <point x="94" y="663"/>
      <point x="183" y="726"/>
      <point x="298" y="726" type="curve" smooth="yes"/>
      <point x="391" y="726"/>
      <point x="459" y="675"/>
      <point x="457" y="577" type="curve" smooth="yes"/>
      <point x="455" y="482"/>
      <point x="408" y="433"/>
      <point x="362" y="403" type="curve"/>
      <point x="407" y="386"/>
      <point x="445" y="347"/>
      <point x="444" y="269" type="curve" smooth="yes"/>
      <point x="441" y="99"/>
      <point x="346" y="0"/>
    </contour>
  </outline>
</glyph>
<glyph name="ae" format="1">
  <advance width="671"/>
  <unicode hex="00E6"/>
  <outline>
    <contour>
      <point x="479" y="536" type="curve" smooth="yes"/>
      <point x="577" y="536"/>
      <point x="638" y="469"/>
      <point x="638" y="335" type="curve" smooth="yes"/>
      <point x="638" y="303"/>
      <point x="632" y="253"/>
      <point x="627" y="218" type="curve"/>
      <point x="381" y="218" type="line"/>
      <point x="373" y="134"/>
      <point x="395" y="110"/>
      <point x="430" y="110" type="curve" smooth="yes"/>
      <point x="460" y="110"/>
      <point x="488" y="126"/>
      <point x="520" y="169" type="curve"/>
      <point x="601" y="97" type="line"/>
      <point x="547" y="29"/>
      <point x="494" y="-11"/>
      <point x="405" y="-11" type="curve" smooth="yes"/>
      <point x="341" y="-11"/>
      <point x="296" y="15"/>
      <point x="278" y="50" type="curve"/>
      <point x="240" y="15"/>
      <point x="192" y="-11"/>
      <point x="131" y="-11" type="curve" smooth="yes"/>
      <point x="35" y="-11"/>
      <point x="-12" y="40"/>
      <point x="-12" y="127" type="curve" smooth="yes"/>
      <point x="-12" y="256"/>
      <point x="68" y="339"/>
      <point x="177" y="339" type="curve" smooth="yes"/>
      <point x="214" y="339"/>
      <point x="238" y="332"/>
      <point x="257" y="322" type="curve"/>
      <point x="264" y="363" type="line" smooth="yes"/>
      <point x="270" y="400"/>
      <point x="256" y="415"/>
      <point x="220" y="415" type="curve" smooth="yes"/>
      <point x="179" y="415"/>
      <point x="143" y="403"/>
      <point x="94" y="375" type="curve"/>
      <point x="69" y="482" type="line"/>
      <point x="127" y="514"/>
      <point x="195" y="536"/>
      <point x="264" y="536" type="curve" smooth="yes"/>
      <point x="327" y="536"/>
      <point x="358" y="514"/>
      <point x="368" y="488" type="curve"/>
      <point x="387" y="514"/>
      <point x="432" y="536"/>
    </contour>
    <contour>
      <point x="502" y="319" type="line"/>
      <point x="507" y="392"/>
      <point x="494" y="420"/>
      <point x="460" y="420" type="curve" smooth="yes"/>
      <point x="430" y="420"/>
      <point x="411" y="396"/>
      <point x="396" y="319" type="curve"/>
    </contour>
    <contour>
      <point x="226" y="122" type="curve"/>
      <point x="241" y="221" type="line"/>
      <point x="229" y="228"/>
      <point x="213" y="235"/>
      <point x="195" y="235" type="curve" smooth="yes"/>
      <point x="164" y="235"/>
      <point x="135" y="207"/>
      <point x="135" y="147" type="curve" smooth="yes"/>
      <point x="135" y="117"/>
      <point x="150" y="103"/>
      <point x="175" y="103" type="curve" smooth="yes"/>
      <point x="196" y="103"/>
      <point x="211" y="111"/>
    </contour>
  </outline>
</glyph>
<glyph name="ccedilla" format="1">
  <advance width="419"/>
  <unicode hex="00E7"/>
  <outline>
    <contour>
      <point x="130" y="-7" type="line"/>
      <point x="50" y="9"/>
      <point x="1" y="70"/>
      <point x="1" y="187" type="curve" smooth="yes"/>
      <point x="1" y="210"/>
      <point x="2" y="234"/>
      <point x="6" y="261" type="curve" smooth="yes"/>
      <point x="31" y="444"/>
      <point x="116" y="536"/>
      <point x="242" y="536" type="curve" smooth="yes"/>
      <point x="340" y="536"/>
      <point x="389" y="471"/>
      <point x="401" y="384" type="curve"/>
      <point x="274" y="328" type="line"/>
      <point x="271" y="388"/>
      <point x="258" y="407"/>
      <point x="229" y="407" type="curve" smooth="yes"/>
      <point x="194" y="407"/>
      <point x="175" y="370"/>
      <point x="159" y="261" type="curve" smooth="yes"/>
      <point x="155" y="231"/>
      <point x="152" y="207"/>
      <point x="152" y="188" type="curve" smooth="yes"/>
      <point x="151" y="136"/>
      <point x="165" y="119"/>
      <point x="192" y="119" type="curve" smooth="yes"/>
      <point x="217" y="119"/>
      <point x="239" y="139"/>
      <point x="264" y="202" type="curve"/>
      <point x="371" y="143" type="line"/>
      <point x="323" y="40"/>
      <point x="268" y="-8"/>
      <point x="182" y="-11" type="curve"/>
      <point x="165" y="-45" type="line"/>
      <point x="175" y="-40"/>
      <point x="192" y="-36"/>
      <point x="209" y="-36" type="curve" smooth="yes"/>
      <point x="242" y="-36"/>
      <point x="268" y="-60"/>
      <point x="268" y="-99" type="curve" smooth="yes"/>
      <point x="268" y="-164"/>
      <point x="217" y="-193"/>
      <point x="146" y="-193" type="curve" smooth="yes"/>
      <point x="99" y="-193"/>
      <point x="60" y="-178"/>
      <point x="30" y="-160" type="curve"/>
      <point x="57" y="-119" type="line"/>
      <point x="86" y="-135"/>
      <point x="110" y="-142"/>
      <point x="136" y="-142" type="curve" smooth="yes"/>
      <point x="163" y="-142"/>
      <point x="184" y="-132"/>
      <point x="184" y="-108" type="curve" smooth="yes"/>
      <point x="184" y="-94"/>
      <point x="174" y="-87"/>
      <point x="162" y="-87" type="curve" smooth="yes"/>
      <point x="150" y="-87"/>
      <point x="141" y="-91"/>
      <point x="129" y="-98" type="curve"/>
      <point x="97" y="-74" type="line"/>
    </contour>
  </outline>
</glyph>
<glyph name="eth" format="1">
  <advance width="461"/>
  <unicode hex="00F0"/>
  <outline>
    <contour>
      <point x="417" y="267" type="curve" smooth="yes"/>
      <point x="382" y="69"/>
      <point x="296" y="-11"/>
      <point x="172" y="-11" type="curve" smooth="yes"/>
      <point x="52" y="-11"/>
      <point x="-19" y="78"/>
      <point x="4" y="232" type="curve" smooth="yes"/>
      <point x="27" y="386"/>
      <point x="122" y="474"/>
      <point x="217" y="474" type="curve" smooth="yes"/>
      <point x="269" y="474"/>
      <point x="305" y="457"/>
      <point x="322" y="429" type="curve"/>
      <point x="322" y="469"/>
      <point x="312" y="504"/>
      <point x="293" y="532" type="curve"/>
      <point x="247" y="491" type="line"/>
      <point x="194" y="547" type="line"/>
      <point x="235" y="582" type="line"/>
      <point x="213" y="594"/>
      <point x="185" y="601"/>
      <point x="156" y="604" type="curve"/>
      <point x="174" y="711" type="line"/>
      <point x="240" y="709"/>
      <point x="292" y="694"/>
      <point x="332" y="667" type="curve"/>
      <point x="382" y="711" type="line"/>
      <point x="435" y="656" type="line"/>
      <point x="385" y="612" type="line"/>
      <point x="437" y="537"/>
      <point x="444" y="418"/>
    </contour>
    <contour>
      <point x="258" y="232" type="curve" smooth="yes"/>
      <point x="274" y="322"/>
      <point x="260" y="347"/>
      <point x="227" y="347" type="curve" smooth="yes"/>
      <point x="194" y="347"/>
      <point x="172" y="320"/>
      <point x="157" y="234" type="curve" smooth="yes"/>
      <point x="142" y="146"/>
      <point x="153" y="118"/>
      <point x="188" y="118" type="curve" smooth="yes"/>
      <point x="221" y="118"/>
      <point x="243" y="146"/>
    </contour>
  </outline>
</glyph>
<glyph name="oslash" format="1">
  <advance width="460"/>
  <unicode hex="00F8"/>
  <outline>
    <contour>
      <point x="303" y="529" type="curve"/>
      <point x="331" y="575" type="line"/>
      <point x="470" y="575" type="line"/>
      <point x="395" y="454" type="line"/>
      <point x="411" y="422"/>
      <point x="419" y="384"/>
      <point x="419" y="336" type="curve" smooth="yes"/>
      <point x="419" y="314"/>
      <point x="417" y="289"/>
      <point x="414" y="264" type="curve" smooth="yes"/>
      <point x="389" y="84"/>
      <point x="305" y="-11"/>
      <point x="173" y="-11" type="curve" smooth="yes"/>
      <point x="152" y="-11"/>
      <point x="132" y="-8"/>
      <point x="115" y="-3" type="curve"/>
      <point x="86" y="-50" type="line"/>
      <point x="-53" y="-50" type="line"/>
      <point x="24" y="74" type="line"/>
      <point x="9" y="105"/>
      <point x="1" y="144"/>
      <point x="1" y="191" type="curve" smooth="yes"/>
      <point x="1" y="213"/>
      <point x="3" y="236"/>
      <point x="6" y="261" type="curve" smooth="yes"/>
      <point x="30" y="439"/>
      <point x="112" y="536"/>
      <point x="246" y="536" type="curve" smooth="yes"/>
      <point x="267" y="536"/>
      <point x="286" y="534"/>
    </contour>
    <contour>
      <point x="261" y="262" type="curve" smooth="yes"/>
      <point x="266" y="296"/>
      <point x="268" y="323"/>
      <point x="268" y="344" type="curve" smooth="yes"/>
      <point x="267" y="391"/>
      <point x="255" y="407"/>
      <point x="230" y="407" type="curve" smooth="yes"/>
      <point x="194" y="407"/>
      <point x="176" y="372"/>
      <point x="160" y="264" type="curve" smooth="yes"/>
      <point x="155" y="231"/>
      <point x="152" y="205"/>
      <point x="152" y="184" type="curve" smooth="yes"/>
      <point x="151" y="136"/>
      <point x="164" y="118"/>
      <point x="190" y="118" type="curve" smooth="yes"/>
      <point x="225" y="118"/>
      <point x="247" y="155"/>
    </contour>
  </outline>
</glyph>
<glyph name="thorn" format="1">
  <advance width="463"/>
  <unicode hex="00FE"/>
  <outline>
    <contour>
      <point x="417" y="265" type="curve" smooth="yes"/>
      <point x="381" y="65"/>
      <point x="316" y="-11"/>
      <point x="222" y="-11" type="curve" smooth="yes"/>
      <point x="182" y="-11"/>
      <point x="153" y="8"/>
      <point x="135" y="29" type="curve"/>
      <point x="107" y="-133" type="line"/>
      <point x="-58" y="-193" type="line"/>
      <point x="94" y="669" type="line"/>
      <point x="259" y="729" type="line"/>
      <point x="217" y="494" type="line"/>
      <point x="247" y="518"/>
      <point x="276" y="536"/>
      <point x="320" y="536" type="curve" smooth="yes"/>
      <point x="409" y="536"/>
      <point x="450" y="449"/>
    </contour>
    <contour>
      <point x="263" y="261" type="curve" smooth="yes"/>
      <point x="285" y="387"/>
      <point x="270" y="406"/>
      <point x="241" y="406" type="curve" smooth="yes"/>
      <point x="223" y="406"/>
      <point x="210" y="398"/>
      <point x="198" y="388" type="curve"/>
      <point x="154" y="138" type="line"/>
      <point x="162" y="128"/>
      <point x="175" y="119"/>
      <point x="191" y="119" type="curve" smooth="yes"/>
      <point x="218" y="119"/>
      <point x="241" y="136"/>
    </contour>
  </outline>
</glyph>
<glyph name="dotlessi" format="1">
  <advance width="242"/>
  <unicode hex="0131"/>
  <outline>
    <contour>
      <point x="134" y="0" type="line"/>
      <point x="-20" y="0" type="line"/>
      <point x="73" y="525" type="line"/>
      <point x="227" y="525" type="line"/>
    </contour>
  </outline>
</glyph>
<glyph name="Lslash" format="1">
  <advance width="447"/>
  <unicode hex="0141"/>
  <outline>
    <contour>
      <point x="213" y="314" type="line"/>
      <point x="184" y="146" type="line"/>
      <point x="395" y="146" type="line"/>
      <point x="369" y="0" type="line"/>
      <point x="-11" y="0" type="line"/>
      <point x="30" y="232" type="line"/>
      <point x="-17" y="204" type="line"/>
      <point x="10" y="356" type="line"/>
      <point x="57" y="384" type="line"/>
      <point x="112" y="700" type="line"/>
      <point x="281" y="700" type="line"/>
      <point x="240" y="466" type="line"/>
      <point x="328" y="519" type="line"/>
      <point x="301" y="366" type="line"/>
    </contour>
  </outline>
</glyph>
<glyph name="lslash" format="1">
  <advance width="242"/>
  <unicode hex="0142"/>
  <outline>
    <contour>
      <point x="49" y="396" type="line"/>
      <point x="98" y="669" type="line"/>
      <point x="263" y="729" type="line"/>
      <point x="216" y="464" type="line"/>
      <point x="265" y="492" type="line"/>
      <point x="238" y="344" type="line"/>
      <point x="190" y="316" type="line"/>
      <point x="134" y="0" type="line"/>
      <point x="-20" y="0" type="line"/>
      <point x="23" y="248" type="line"/>
      <point x="-23" y="222" type="line"/>
      <point x="3" y="370" type="line"/>
    </contour>
  </outline>
</glyph>
<glyph name="OE" format="1">
  <advance width="789"/>
  <unicode hex="0152"/>
  <outline>
    <contour>
      <point x="702" y="0" type="line"/>
      <point x="343" y="0" type="line"/>
      <point x="353" y="56" type="line"/>
      <point x="317" y="12"/>
      <point x="282" y="-11"/>
      <point x="220" y="-11" type="curve" smooth="yes"/>
      <point x="100" y="-11"/>
      <point x="24" y="69"/>
      <point x="23" y="240" type="curve" smooth="yes"/>
      <point x="23" y="273"/>
      <point x="26" y="309"/>
      <point x="32" y="349" type="curve" smooth="yes"/>
      <point x="70" y="609"/>
      <point x="178" y="711"/>
      <point x="324" y="711" type="curve" smooth="yes"/>
      <point x="385" y="711"/>
      <point x="438" y="688"/>
      <point x="457" y="645" type="curve"/>
      <point x="466" y="700" type="line"/>
      <point x="818" y="700" type="line"/>
      <point x="793" y="557" type="line"/>
      <point x="554" y="557" type="line"/>
      <point x="533" y="437" type="line"/>
      <point x="687" y="437" type="line"/>
      <point x="662" y="295" type="line"/>
      <point x="508" y="295" type="line"/>
      <point x="481" y="143" type="line"/>
      <point x="727" y="143" type="line"/>
    </contour>
    <contour>
      <point x="361" y="349" type="curve" smooth="yes"/>
      <point x="367" y="393"/>
      <point x="370" y="428"/>
      <point x="371" y="457" type="curve" smooth="yes"/>
      <point x="372" y="540"/>
      <point x="350" y="567"/>
      <point x="311" y="567" type="curve" smooth="yes"/>
      <point x="258" y="567"/>
      <point x="228" y="520"/>
      <point x="204" y="351" type="curve" smooth="yes"/>
      <point x="197" y="303"/>
      <point x="193" y="265"/>
      <point x="193" y="235" type="curve" smooth="yes"/>
      <point x="192" y="158"/>
      <point x="213" y="133"/>
      <point x="250" y="133" type="curve" smooth="yes"/>
      <point x="302" y="133"/>
      <point x="337" y="180"/>
    </contour>
  </outline>
</glyph>
<glyph name="oe" format="1">
  <advance width="686"/>
  <unicode hex="0153"/>
  <outline>
    <contour>
      <point x="306" y="49" type="curve"/>
      <point x="271" y="6"/>
      <point x="224" y="-11"/>
      <point x="173" y="-11" type="curve" smooth="yes"/>
      <point x="63" y="-11"/>
      <point x="1" y="59"/>
      <point x="1" y="193" type="curve" smooth="yes"/>
      <point x="1" y="214"/>
      <point x="3" y="237"/>
      <point x="6" y="261" type="curve" smooth="yes"/>
      <point x="30" y="439"/>
      <point x="112" y="536"/>
      <point x="246" y="536" type="curve" smooth="yes"/>
      <point x="296" y="536"/>
      <point x="341" y="515"/>
      <point x="362" y="478" type="curve"/>
      <point x="387" y="511"/>
      <point x="440" y="536"/>
      <point x="487" y="536" type="curve" smooth="yes"/>
      <point x="592" y="536"/>
      <point x="653" y="470"/>
      <point x="653" y="336" type="curve" smooth="yes"/>
      <point x="653" y="302"/>
      <point x="647" y="253"/>
      <point x="642" y="218" type="curve"/>
      <point x="396" y="218" type="line"/>
      <point x="388" y="134"/>
      <point x="410" y="110"/>
      <point x="445" y="110" type="curve" smooth="yes"/>
      <point x="475" y="110"/>
      <point x="503" y="126"/>
      <point x="535" y="169" type="curve"/>
      <point x="616" y="97" type="line"/>
      <point x="562" y="29"/>
      <point x="509" y="-11"/>
      <point x="420" y="-11" type="curve" smooth="yes"/>
      <point x="372" y="-11"/>
      <point x="325" y="6"/>
    </contour>
    <contour>
      <point x="517" y="319" type="line"/>
      <point x="522" y="392"/>
      <point x="509" y="420"/>
      <point x="475" y="420" type="curve" smooth="yes"/>
      <point x="445" y="420"/>
      <point x="426" y="396"/>
      <point x="411" y="319" type="curve"/>
    </contour>
    <contour>
      <point x="261" y="262" type="curve" smooth="yes"/>
      <point x="265" y="294"/>
      <point x="268" y="320"/>
      <point x="268" y="340" type="curve" smooth="yes"/>
      <point x="268" y="390"/>
      <point x="256" y="407"/>
      <point x="230" y="407" type="curve" smooth="yes"/>
      <point x="194" y="407"/>
      <point x="176" y="372"/>
      <point x="160" y="264" type="curve" smooth="yes"/>
      <point x="155" y="231"/>
      <point x="152" y="204"/>
      <point x="152" y="183" type="curve" smooth="yes"/>
      <point x="151" y="136"/>
      <point x="164" y="118"/>
      <point x="190" y="118" type="curve" smooth="yes"/>
      <point x="225" y="118"/>
      <point x="247" y="155"/>
    </contour>
  </outline>
</glyph>
<glyph name="florin" format="1">
  <advance width="357"/>
  <unicode hex="0192"/>
  <outline>
    <contour>
      <point x="372" y="586" type="line"/>
      <point x="360" y="592"/>
      <point x="340" y="595"/>
      <point x="323" y="595" type="curve" smooth="yes"/>
      <point x="296" y="595"/>
      <point x="285" y="584"/>
      <point x="281" y="561" type="curve" smooth="yes"/>
      <point x="275" y="525" type="line"/>
      <point x="348" y="525" type="line"/>
      <point x="325" y="399" type="line"/>
      <point x="253" y="399" type="line"/>
      <point x="159" y="-134" type="line"/>
      <point x="-3" y="-193" type="line"/>
      <point x="101" y="399" type="line"/>
      <point x="52" y="399" type="line"/>
      <point x="75" y="525" type="line"/>
      <point x="124" y="525" type="line"/>
      <point x="132" y="575" type="line" smooth="yes"/>
      <point x="147" y="670"/>
      <point x="204" y="711"/>
      <point x="295" y="711" type="curve" smooth="yes"/>
      <point x="339" y="711"/>
      <point x="369" y="705"/>
      <point x="392" y="695" type="curve"/>
    </contour>
  </outline>
</glyph>
<glyph name="circumflex" format="1">
  <advance width="415"/>
  <unicode hex="02C6"/>
  <outline>
    <contour>
      <point x="426" y="590" type="line"/>
      <point x="321" y="590" type="line"/>
      <point x="275" y="661" type="line"/>
      <point x="201" y="590" type="line"/>
      <point x="91" y="590" type="line"/>
      <point x="228" y="750" type="line"/>
      <point x="345" y="750" type="line"/>
    </contour>
  </outline>
</glyph>
<glyph name="caron" format="1">
  <advance width="415"/>
  <unicode hex="02C7"/>
  <outline>
    <contour>
      <point x="455" y="750" type="line"/>
      <point x="318" y="590" type="line"/>
      <point x="201" y="590" type="line"/>
      <point x="120" y="750" type="line"/>
      <point x="225" y="750" type="line"/>
      <point x="277" y="684" type="line"/>
      <point x="352" y="750" type="line"/>
    </contour>
  </outline>
</glyph>
<glyph name="breve" format="1">
  <advance width="415"/>
  <unicode hex="02D8"/>
  <outline>
    <contour>
      <point x="449" y="742" type="line"/>
      <point x="418" y="641"/>
      <point x="361" y="590"/>
      <point x="260" y="590" type="curve" smooth="yes"/>
      <point x="163" y="590"/>
      <point x="113" y="641"/>
      <point x="118" y="742" type="curve"/>
      <point x="209" y="742" type="line"/>
      <point x="210" y="704"/>
      <point x="225" y="680"/>
      <point x="273" y="680" type="curve" smooth="yes"/>
      <point x="319" y="680"/>
      <point x="342" y="704"/>
      <point x="358" y="742" type="curve"/>
    </contour>
  </outline>
</glyph>
<glyph name="dotaccent" format="1">
  <advance width="415"/>
  <unicode hex="02D9"/>
  <outline>
    <contour>
      <point x="342" y="668" type="curve" smooth="yes"/>
      <point x="342" y="625"/>
      <point x="304" y="588"/>
      <point x="260" y="588" type="curve" smooth="yes"/>
      <point x="216" y="588"/>
      <point x="179" y="625"/>
      <point x="179" y="668" type="curve" smooth="yes"/>
      <point x="179" y="713"/>
      <point x="216" y="749"/>
      <point x="260" y="749" type="curve" smooth="yes"/>
      <point x="304" y="749"/>
      <point x="342" y="713"/>
    </contour>
  </outline>
</glyph>
<glyph name="ring" format="1">
  <advance width="415"/>
  <unicode hex="02DA"/>
  <outline>
    <contour>
      <point x="392" y="710" type="curve" smooth="yes"/>
      <point x="392" y="641"/>
      <point x="339" y="590"/>
      <point x="269" y="590" type="curve" smooth="yes"/>
      <point x="200" y="590"/>
      <point x="146" y="641"/>
      <point x="146" y="710" type="curve" smooth="yes"/>
      <point x="146" y="780"/>
      <point x="200" y="832"/>
      <point x="269" y="832" type="curve" smooth="yes"/>
      <point x="339" y="832"/>
      <point x="392" y="780"/>
    </contour>
    <contour>
      <point x="317" y="710" type="curve" smooth="yes"/>
      <point x="317" y="740"/>
      <point x="297" y="762"/>
      <point x="269" y="762" type="curve" smooth="yes"/>
      <point x="241" y="762"/>
      <point x="222" y="740"/>
      <point x="222" y="710" type="curve" smooth="yes"/>
      <point x="222" y="680"/>
      <point x="241" y="659"/>
      <point x="269" y="659" type="curve" smooth="yes"/>
      <point x="297" y="659"/>
      <point x="317" y="680"/>
    </contour>
  </outline>
</glyph>
<glyph name="ogonek" format="1">
  <advance width="415"/>
  <unicode hex="02DB"/>
  <outline>
    <contour>
      <point x="273" y="-155" type="line"/>
      <point x="233" y="-178"/>
      <point x="196" y="-193"/>
      <point x="149" y="-193" type="curve" smooth="yes"/>
      <point x="94" y="-193"/>
      <point x="65" y="-164"/>
      <point x="67" y="-118" type="curve" smooth="yes"/>
      <point x="69" y="-77"/>
      <point x="106" y="-36"/>
      <point x="153" y="0" type="curve"/>
      <point x="211" y="0" type="line"/>
      <point x="179" y="-48"/>
      <point x="163" y="-71"/>
      <point x="161" y="-101" type="curve" smooth="yes"/>
      <point x="160" y="-122"/>
      <point x="172" y="-135"/>
      <point x="193" y="-135" type="curve" smooth="yes"/>
      <point x="214" y="-135"/>
      <point x="233" y="-129"/>
      <point x="263" y="-116" type="curve"/>
    </contour>
  </outline>
</glyph>
<glyph name="tilde" format="1">
  <advance width="415"/>
  <unicode hex="02DC"/>
  <outline>
    <contour>
      <point x="461" y="733" type="line"/>
      <point x="445" y="639"/>
      <point x="391" y="587"/>
      <point x="326" y="587" type="curve" smooth="yes"/>
      <point x="292" y="587"/>
      <point x="272" y="595"/>
      <point x="246" y="614" type="curve" smooth="yes"/>
      <point x="229" y="626"/>
      <point x="217" y="637"/>
      <point x="204" y="637" type="curve" smooth="yes"/>
      <point x="185" y="637"/>
      <point x="175" y="624"/>
      <point x="166" y="590" type="curve"/>
      <point x="72" y="590" type="line"/>
      <point x="89" y="685"/>
      <point x="143" y="736"/>
      <point x="208" y="736" type="curve" smooth="yes"/>
      <point x="242" y="736"/>
      <point x="261" y="728"/>
      <point x="287" y="709" type="curve" smooth="yes"/>
      <point x="305" y="696"/>
      <point x="316" y="686"/>
      <point x="329" y="686" type="curve" smooth="yes"/>
      <point x="348" y="686"/>
      <point x="358" y="700"/>
      <point x="367" y="733" type="curve"/>
    </contour>
  </outline>
</glyph>
<glyph name="hungarumlaut" format="1">
  <advance width="415"/>
  <unicode hex="02DD"/>
  <outline>
    <contour>
      <point x="567" y="750" type="line"/>
      <point x="402" y="590" type="line"/>
      <point x="301" y="590" type="line"/>
      <point x="404" y="750" type="line"/>
    </contour>
    <contour>
      <point x="374" y="750" type="line"/>
      <point x="209" y="590" type="line"/>
      <point x="109" y="590" type="line"/>
      <point x="211" y="750" type="line"/>
    </contour>
  </outline>
</glyph>
<glyph name="endash" format="1">
  <advance width="446"/>
  <unicode hex="2013"/>
  <outline>
    <contour>
      <point x="383" y="287" type="line"/>
      <point x="33" y="287" type="line"/>
      <point x="59" y="437" type="line"/>
      <point x="409" y="437" type="line"/>
    </contour>
  </outline>
</glyph>
<glyph name="emdash" format="1">
  <advance width="531"/>
  <unicode hex="2014"/>
  <outline>
    <contour>
      <point x="468" y="287" type="line"/>
      <point x="33" y="287" type="line"/>
      <point x="59" y="437" type="line"/>
      <point x="494" y="437" type="line"/>
    </contour>
  </outline>
</glyph>
<glyph name="quoteleft" format="1">
  <advance width="269"/>
  <unicode hex="2018"/>
  <unicode hex="02BB"/>
  <outline>
    <contour>
      <point x="285" y="700" type="line"/>
      <point x="221" y="422" type="line"/>
      <point x="52" y="422" type="line"/>
      <point x="186" y="700" type="line"/>
    </contour>
  </outline>
</glyph>
<glyph name="quoteright" format="1">
  <advance width="269"/>
  <unicode hex="2019"/>
  <unicode hex="02BC"/>
  <outline>
    <contour>
      <point x="295" y="700" type="line"/>
      <point x="161" y="422" type="line"/>
      <point x="62" y="422" type="line"/>
      <point x="126" y="700" type="line"/>
    </contour>
  </outline>
</glyph>
<glyph name="quotesinglbase" format="1">
  <advance width="269"/>
  <unicode hex="201A"/>
  <outline>
    <contour>
      <point x="195" y="173" type="line"/>
      <point x="61" y="-105" type="line"/>
      <point x="-38" y="-105" type="line"/>
      <point x="26" y="173" type="line"/>
    </contour>
  </outline>
</glyph>
<glyph name="quotedblleft" format="1">
  <advance width="491"/>
  <unicode hex="201C"/>
  <outline>
    <contour>
      <point x="507" y="700" type="line"/>
      <point x="443" y="422" type="line"/>
      <point x="274" y="422" type="line"/>
      <point x="408" y="700" type="line"/>
    </contour>
    <contour>
      <point x="285" y="700" type="line"/>
      <point x="221" y="422" type="line"/>
      <point x="52" y="422" type="line"/>
      <point x="186" y="700" type="line"/>
    </contour>
  </outline>
</glyph>
<glyph name="quotedblright" format="1">
  <advance width="491"/>
  <unicode hex="201D"/>
  <outline>
    <contour>
      <point x="517" y="700" type="line"/>
      <point x="383" y="422" type="line"/>
      <point x="284" y="422" type="line"/>
      <point x="348" y="700" type="line"/>
    </contour>
    <contour>
      <point x="295" y="700" type="line"/>
      <point x="161" y="422" type="line"/>
      <point x="62" y="422" type="line"/>
      <point x="126" y="700" type="line"/>
    </contour>
  </outline>
</glyph>
<glyph name="quotedblbase" format="1">
  <advance width="501"/>
  <unicode hex="201E"/>
  <outline>
    <contour>
      <point x="427" y="173" type="line"/>
      <point x="293" y="-105" type="line"/>
      <point x="194" y="-105" type="line"/>
      <point x="258" y="173" type="line"/>
    </contour>
    <contour>
      <point x="195" y="173" type="line"/>
      <point x="61" y="-105" type="line"/>
      <point x="-38" y="-105" type="line"/>
      <point x="26" y="173" type="line"/>
    </contour>
  </outline>
</glyph>
<glyph name="dagger" format="1">
  <advance width="480"/>
  <unicode hex="2020"/>
  <outline>
    <contour>
      <point x="445" y="358" type="line"/>
      <point x="318" y="358" type="line"/>
      <point x="237" y="-100" type="line"/>
      <point x="82" y="-100" type="line"/>
      <point x="163" y="358" type="line"/>
      <point x="36" y="358" type="line"/>
      <point x="62" y="504" type="line"/>
      <point x="189" y="504" type="line"/>
      <point x="223" y="700" type="line"/>
      <point x="378" y="700" type="line"/>
      <point x="344" y="504" type="line"/>
      <point x="471" y="504" type="line"/>
    </contour>
  </outline>
</glyph>
<glyph name="daggerdbl" format="1">
  <advance width="480"/>
  <unicode hex="2021"/>
  <outline>
    <contour>
      <point x="398" y="97" type="line"/>
      <point x="268" y="97" type="line"/>
      <point x="233" y="-100" type="line"/>
      <point x="85" y="-100" type="line"/>
      <point x="120" y="97" type="line"/>
      <point x="-11" y="97" type="line"/>
      <point x="13" y="235" type="line"/>
      <point x="144" y="235" type="line"/>
      <point x="168" y="366" type="line"/>
      <point x="37" y="366" type="line"/>
      <point x="61" y="504" type="line"/>
      <point x="192" y="504" type="line"/>
      <point x="226" y="700" type="line"/>
      <point x="374" y="700" type="line"/>
      <point x="340" y="504" type="line"/>
      <point x="470" y="504" type="line"/>
      <point x="446" y="366" type="line"/>
      <point x="316" y="366" type="line"/>
      <point x="292" y="235" type="line"/>
      <point x="422" y="235" type="line"/>
    </contour>
  </outline>
</glyph>
<glyph name="ellipsis" format="1">
  <advance width="783"/>
  <unicode hex="2026"/>
  <outline>
    <contour>
      <point x="705" y="85" type="curve" smooth="yes"/>
      <point x="705" y="29"/>
      <point x="665" y="-11"/>
      <point x="609" y="-11" type="curve" smooth="yes"/>
      <point x="553" y="-11"/>
      <point x="512" y="29"/>
      <point x="512" y="85" type="curve" smooth="yes"/>
      <point x="512" y="141"/>
      <point x="553" y="180"/>
      <point x="609" y="180" type="curve" smooth="yes"/>
      <point x="665" y="180"/>
      <point x="705" y="141"/>
    </contour>
    <contour>
      <point x="444" y="85" type="curve" smooth="yes"/>
      <point x="444" y="29"/>
      <point x="404" y="-11"/>
      <point x="348" y="-11" type="curve" smooth="yes"/>
      <point x="292" y="-11"/>
      <point x="251" y="29"/>
      <point x="251" y="85" type="curve" smooth="yes"/>
      <point x="251" y="141"/>
      <point x="292" y="180"/>
      <point x="348" y="180" type="curve" smooth="yes"/>
      <point x="404" y="180"/>
      <point x="444" y="141"/>
    </contour>
    <contour>
      <point x="183" y="85" type="curve" smooth="yes"/>
      <point x="183" y="29"/>
      <point x="143" y="-11"/>
      <point x="87" y="-11" type="curve" smooth="yes"/>
      <point x="31" y="-11"/>
      <point x="-10" y="29"/>
      <point x="-10" y="85" type="curve" smooth="yes"/>
      <point x="-10" y="141"/>
      <point x="31" y="180"/>
      <point x="87" y="180" type="curve" smooth="yes"/>
      <point x="143" y="180"/>
      <point x="183" y="141"/>
    </contour>
  </outline>
</glyph>
<glyph name="perthousand" format="1">
  <advance width="1297"/>
  <unicode hex="2030"/>
  <outline>
    <contour>
      <point x="186" y="275" type="curve" smooth="yes"/>
      <point x="94" y="275"/>
      <point x="39" y="332"/>
      <point x="42" y="443" type="curve" smooth="yes"/>
      <point x="46" y="612"/>
      <point x="132" y="711"/>
      <point x="249" y="711" type="curve" smooth="yes"/>
      <point x="339" y="711"/>
      <point x="395" y="656"/>
      <point x="395" y="550" type="curve" smooth="yes"/>
      <point x="395" y="378"/>
      <point x="306" y="275"/>
    </contour>
    <contour>
      <point x="754" y="700" type="line"/>
      <point x="287" y="0" type="line"/>
      <point x="151" y="0" type="line"/>
      <point x="618" y="700" type="line"/>
    </contour>
    <contour>
      <point x="1045" y="-11" type="curve" smooth="yes"/>
      <point x="953" y="-11"/>
      <point x="898" y="46"/>
      <point x="901" y="157" type="curve" smooth="yes"/>
      <point x="905" y="326"/>
      <point x="991" y="425"/>
      <point x="1108" y="425" type="curve" smooth="yes"/>
      <point x="1198" y="425"/>
      <point x="1254" y="370"/>
      <point x="1254" y="264" type="curve" smooth="yes"/>
      <point x="1254" y="92"/>
      <point x="1165" y="-11"/>
    </contour>
    <contour>
      <point x="655" y="-11" type="curve" smooth="yes"/>
      <point x="563" y="-11"/>
      <point x="508" y="46"/>
      <point x="511" y="157" type="curve" smooth="yes"/>
      <point x="515" y="326"/>
      <point x="601" y="425"/>
      <point x="718" y="425" type="curve" smooth="yes"/>
      <point x="808" y="425"/>
      <point x="864" y="370"/>
      <point x="864" y="264" type="curve" smooth="yes"/>
      <point x="864" y="92"/>
      <point x="775" y="-11"/>
    </contour>
    <contour>
      <point x="259" y="492" type="curve" smooth="yes"/>
      <point x="263" y="518"/>
      <point x="265" y="538"/>
      <point x="265" y="555" type="curve" smooth="yes"/>
      <point x="265" y="594"/>
      <point x="254" y="606"/>
      <point x="234" y="606" type="curve" smooth="yes"/>
      <point x="204" y="606"/>
      <point x="191" y="583"/>
      <point x="178" y="494" type="curve" smooth="yes"/>
      <point x="174" y="469"/>
      <point x="172" y="450"/>
      <point x="172" y="434" type="curve" smooth="yes"/>
      <point x="172" y="393"/>
      <point x="182" y="380"/>
      <point x="203" y="380" type="curve" smooth="yes"/>
      <point x="233" y="380"/>
      <point x="246" y="403"/>
    </contour>
    <contour>
      <point x="1118" y="206" type="curve" smooth="yes"/>
      <point x="1122" y="232"/>
      <point x="1124" y="252"/>
      <point x="1124" y="269" type="curve" smooth="yes"/>
      <point x="1124" y="308"/>
      <point x="1113" y="320"/>
      <point x="1093" y="320" type="curve" smooth="yes"/>
      <point x="1063" y="320"/>
      <point x="1050" y="297"/>
      <point x="1037" y="208" type="curve" smooth="yes"/>
      <point x="1033" y="183"/>
      <point x="1031" y="164"/>
      <point x="1031" y="148" type="curve" smooth="yes"/>
      <point x="1031" y="107"/>
      <point x="1041" y="94"/>
      <point x="1062" y="94" type="curve" smooth="yes"/>
      <point x="1092" y="94"/>
      <point x="1105" y="117"/>
    </contour>
    <contour>
      <point x="728" y="206" type="curve" smooth="yes"/>
      <point x="732" y="232"/>
      <point x="734" y="252"/>
      <point x="734" y="269" type="curve" smooth="yes"/>
      <point x="734" y="308"/>
      <point x="723" y="320"/>
      <point x="703" y="320" type="curve" smooth="yes"/>
      <point x="673" y="320"/>
      <point x="660" y="297"/>
      <point x="647" y="208" type="curve" smooth="yes"/>
      <point x="643" y="183"/>
      <point x="641" y="164"/>
      <point x="641" y="148" type="curve" smooth="yes"/>
      <point x="641" y="107"/>
      <point x="651" y="94"/>
      <point x="672" y="94" type="curve" smooth="yes"/>
      <point x="702" y="94"/>
      <point x="715" y="117"/>
    </contour>
  </outline>
</glyph>
<glyph name="guilsinglleft" format="1">
  <advance width="327"/>
  <unicode hex="2039"/>
  <outline>
    <contour>
      <point x="243" y="0" type="line"/>
      <point x="85" y="0" type="line"/>
      <point x="17" y="262" type="line"/>
      <point x="178" y="525" type="line"/>
      <point x="336" y="525" type="line"/>
      <point x="176" y="263" type="line"/>
    </contour>
  </outline>
</glyph>
<glyph name="guilsinglright" format="1">
  <advance width="327"/>
  <unicode hex="203A"/>
  <outline>
    <contour>
      <point x="287" y="263" type="line"/>
      <point x="128" y="0" type="line"/>
      <point x="-31" y="0" type="line"/>
      <point x="128" y="262" type="line"/>
      <point x="62" y="525" type="line"/>
      <point x="221" y="525" type="line"/>
    </contour>
  </outline>
</glyph>
<glyph name="Euro" format="1">
  <advance width="491"/>
  <unicode hex="20AC"/>
  <outline>
    <contour>
      <point x="194" y="365" type="line"/>
      <point x="192" y="353"/>
      <point x="190" y="342"/>
      <point x="188" y="330" type="curve"/>
      <point x="349" y="330" type="line"/>
      <point x="332" y="235" type="line"/>
      <point x="177" y="235" type="line"/>
      <point x="173" y="150"/>
      <point x="200" y="129"/>
      <point x="239" y="129" type="curve" smooth="yes"/>
      <point x="276" y="129"/>
      <point x="306" y="157"/>
      <point x="335" y="207" type="curve"/>
      <point x="460" y="139" type="line"/>
      <point x="397" y="36"/>
      <point x="329" y="-11"/>
      <point x="223" y="-11" type="curve" smooth="yes"/>
      <point x="87" y="-11"/>
      <point x="23" y="73"/>
      <point x="23" y="237" type="curve" smooth="yes"/>
      <point x="23" y="548"/>
      <point x="147" y="711"/>
      <point x="335" y="711" type="curve" smooth="yes"/>
      <point x="448" y="711"/>
      <point x="511" y="649"/>
      <point x="528" y="545" type="curve"/>
      <point x="379" y="490" type="line"/>
      <point x="373" y="543"/>
      <point x="346" y="573"/>
      <point x="310" y="573" type="curve" smooth="yes"/>
      <point x="267" y="573"/>
      <point x="241" y="547"/>
      <point x="216" y="460" type="curve"/>
      <point x="372" y="460" type="line"/>
      <point x="355" y="365" type="line"/>
    </contour>
  </outline>
</glyph>
<glyph name="uni2117" format="1">
  <advance width="659"/>
  <unicode hex="2117"/>
  <outline>
    <contour>
      <point x="620" y="350" type="curve" smooth="yes"/>
      <point x="620" y="140"/>
      <point x="505" y="-11"/>
      <point x="329" y="-11" type="curve" smooth="yes"/>
      <point x="154" y="-11"/>
      <point x="39" y="140"/>
      <point x="39" y="350" type="curve" smooth="yes"/>
      <point x="39" y="560"/>
      <point x="154" y="711"/>
      <point x="329" y="711" type="curve" smooth="yes"/>
      <point x="505" y="711"/>
      <point x="620" y="560"/>
    </contour>
    <contour>
      <point x="553" y="350" type="curve" smooth="yes"/>
      <point x="553" y="526"/>
      <point x="469" y="648"/>
      <point x="329" y="648" type="curve" smooth="yes"/>
      <point x="190" y="648"/>
      <point x="106" y="526"/>
      <point x="106" y="350" type="curve" smooth="yes"/>
      <point x="106" y="174"/>
      <point x="190" y="52"/>
      <point x="329" y="52" type="curve" smooth="yes"/>
      <point x="469" y="52"/>
      <point x="553" y="174"/>
    </contour>
    <contour>
      <point x="475" y="425" type="curve" smooth="yes"/>
      <point x="475" y="331"/>
      <point x="421" y="295"/>
      <point x="346" y="295" type="curve" smooth="yes"/>
      <point x="313" y="295" type="line"/>
      <point x="313" y="152" type="line"/>
      <point x="220" y="152" type="line"/>
      <point x="220" y="548" type="line"/>
      <point x="353" y="548" type="line" smooth="yes"/>
      <point x="423" y="548"/>
      <point x="475" y="516"/>
    </contour>
    <contour>
      <point x="381" y="422" type="curve" smooth="yes"/>
      <point x="381" y="457"/>
      <point x="373" y="472"/>
      <point x="346" y="472" type="curve" smooth="yes"/>
      <point x="313" y="472" type="line"/>
      <point x="313" y="371" type="line"/>
      <point x="345" y="371" type="line" smooth="yes"/>
      <point x="371" y="371"/>
      <point x="381" y="387"/>
    </contour>
  </outline>
</glyph>
<glyph name="trademark" format="1">
  <advance width="663"/>
  <unicode hex="2122"/>
  <outline>
    <contour>
      <point x="313" y="618" type="line"/>
      <point x="233" y="618" type="line"/>
      <point x="178" y="304" type="line"/>
      <point x="84" y="304" type="line"/>
      <point x="139" y="618" type="line"/>
      <point x="58" y="618" type="line"/>
      <point x="72" y="700" type="line"/>
      <point x="327" y="700" type="line"/>
    </contour>
    <contour>
      <point x="621" y="304" type="line"/>
      <point x="535" y="304" type="line"/>
      <point x="550" y="392" type="line" smooth="yes"/>
      <point x="557" y="435"/>
      <point x="565" y="473"/>
      <point x="573" y="507" type="curve"/>
      <point x="559" y="476"/>
      <point x="534" y="425"/>
      <point x="515" y="391" type="curve" smooth="yes"/>
      <point x="460" y="292" type="line"/>
      <point x="441" y="391" type="line" smooth="yes"/>
      <point x="434" y="426"/>
      <point x="427" y="476"/>
      <point x="424" y="507" type="curve"/>
      <point x="420" y="474"/>
      <point x="413" y="435"/>
      <point x="406" y="392" type="curve" smooth="yes"/>
      <point x="391" y="304" type="line"/>
      <point x="306" y="304" type="line"/>
      <point x="375" y="700" type="line"/>
      <point x="460" y="700" type="line"/>
      <point x="478" y="603" type="line" smooth="yes"/>
      <point x="487" y="556"/>
      <point x="494" y="509"/>
      <point x="495" y="481" type="curve"/>
      <point x="505" y="510"/>
      <point x="528" y="554"/>
      <point x="554" y="604" type="curve" smooth="yes"/>
      <point x="604" y="700" type="line"/>
      <point x="690" y="700" type="line"/>
    </contour>
  </outline>
</glyph>
<glyph name="arrowleft" format="1">
  <advance width="520"/>
  <unicode hex="2190"/>
  <outline>
    <contour>
      <point x="487" y="283" type="line"/>
      <point x="228" y="283" type="line"/>
      <point x="236" y="243" type="line" smooth="yes"/>
      <point x="241" y="219"/>
      <point x="239" y="208"/>
      <point x="226" y="198" type="curve"/>
      <point x="215" y="191"/>
      <point x="200" y="191"/>
      <point x="184" y="205" type="curve" smooth="yes"/>
      <point x="12" y="354" type="line"/>
      <point x="184" y="503" type="line" smooth="yes"/>
      <point x="200" y="517"/>
      <point x="215" y="517"/>
      <point x="226" y="510" type="curve"/>
      <point x="239" y="500"/>
      <point x="241" y="490"/>
      <point x="236" y="465" type="curve" smooth="yes"/>
      <point x="228" y="425" type="line"/>
      <point x="487" y="425" type="line"/>
    </contour>
  </outline>
</glyph>
<glyph name="arrowboth" format="1">
  <advance width="690"/>
  <unicode hex="2194"/>
  <outline>
    <contour>
      <point x="677" y="354" type="line"/>
      <point x="506" y="205" type="line" smooth="yes"/>
      <point x="490" y="191"/>
      <point x="474" y="191"/>
      <point x="464" y="198" type="curve" smooth="yes"/>
      <point x="450" y="208"/>
      <point x="448" y="219"/>
      <point x="453" y="243" type="curve" smooth="yes"/>
      <point x="462" y="283" type="line"/>
      <point x="228" y="283" type="line"/>
      <point x="236" y="243" type="line" smooth="yes"/>
      <point x="241" y="219"/>
      <point x="239" y="208"/>
      <point x="226" y="198" type="curve"/>
      <point x="215" y="191"/>
      <point x="200" y="191"/>
      <point x="184" y="205" type="curve" smooth="yes"/>
      <point x="12" y="354" type="line"/>
      <point x="184" y="503" type="line" smooth="yes"/>
      <point x="200" y="517"/>
      <point x="215" y="517"/>
      <point x="226" y="510" type="curve"/>
      <point x="239" y="500"/>
      <point x="241" y="490"/>
      <point x="236" y="465" type="curve" smooth="yes"/>
      <point x="228" y="425" type="line"/>
      <point x="462" y="425" type="line"/>
      <point x="453" y="465" type="line" smooth="yes"/>
      <point x="447" y="490"/>
      <point x="450" y="500"/>
      <point x="464" y="510" type="curve" smooth="yes"/>
      <point x="474" y="517"/>
      <point x="490" y="517"/>
      <point x="506" y="503" type="curve" smooth="yes"/>
    </contour>
  </outline>
</glyph>
<glyph name="arrowupdn" format="1">
  <advance width="382"/>
  <unicode hex="2195"/>
  <outline>
    <contour>
      <point x="347" y="193" type="curve" smooth="yes"/>
      <point x="354" y="183"/>
      <point x="354" y="167"/>
      <point x="340" y="151" type="curve" smooth="yes"/>
      <point x="191" y="-20" type="line"/>
      <point x="42" y="151" type="line" smooth="yes"/>
      <point x="28" y="167"/>
      <point x="27" y="183"/>
      <point x="34" y="193" type="curve" smooth="yes"/>
      <point x="44" y="207"/>
      <point x="55" y="210"/>
      <point x="80" y="204" type="curve" smooth="yes"/>
      <point x="120" y="195" type="line"/>
      <point x="120" y="505" type="line"/>
      <point x="80" y="496" type="line" smooth="yes"/>
      <point x="55" y="490"/>
      <point x="44" y="493"/>
      <point x="34" y="507" type="curve" smooth="yes"/>
      <point x="27" y="517"/>
      <point x="28" y="533"/>
      <point x="42" y="549" type="curve" smooth="yes"/>
      <point x="191" y="720" type="line"/>
      <point x="340" y="549" type="line" smooth="yes"/>
      <point x="354" y="533"/>
      <point x="354" y="517"/>
      <point x="347" y="507" type="curve" smooth="yes"/>
      <point x="337" y="493"/>
      <point x="326" y="491"/>
      <point x="302" y="496" type="curve" smooth="yes"/>
      <point x="262" y="505" type="line"/>
      <point x="262" y="195" type="line"/>
      <point x="302" y="204" type="line" smooth="yes"/>
      <point x="326" y="209"/>
      <point x="337" y="207"/>
    </contour>
  </outline>
</glyph>
<glyph name="radical" format="1">
  <advance width="543"/>
  <unicode hex="221A"/>
  <outline>
    <contour>
      <point x="590" y="700" type="line"/>
      <point x="270" y="0" type="line"/>
      <point x="106" y="0" type="line"/>
      <point x="27" y="340" type="line"/>
      <point x="188" y="340" type="line"/>
      <point x="196" y="286" type="line" smooth="yes"/>
      <point x="203" y="240"/>
      <point x="209" y="189"/>
      <point x="207" y="142" type="curve"/>
      <point x="220" y="190"/>
      <point x="243" y="255"/>
      <point x="264" y="306" type="curve" smooth="yes"/>
      <point x="425" y="700" type="line"/>
    </contour>
  </outline>
</glyph>
<glyph name="apple" format="1">
  <advance width="743"/>
  <unicode hex="F8FF"/>
  <outline>
    <contour>
      <point x="730" y="354" type="line"/>
      <point x="575" y="221" type="line" smooth="yes"/>
      <point x="560" y="208"/>
      <point x="546" y="207"/>
      <point x="536" y="214" type="curve" smooth="yes"/>
      <point x="524" y="223"/>
      <point x="522" y="234"/>
      <point x="527" y="256" type="curve" smooth="yes"/>
      <point x="535" y="292" type="line"/>
      <point x="433" y="292" type="line"/>
      <point x="433" y="170" type="line"/>
      <point x="470" y="178" type="line" smooth="yes"/>
      <point x="492" y="183"/>
      <point x="503" y="181"/>
      <point x="512" y="169" type="curve"/>
      <point x="518" y="159"/>
      <point x="518" y="145"/>
      <point x="505" y="130" type="curve" smooth="yes"/>
      <point x="371" y="-25" type="line"/>
      <point x="238" y="130" type="line" smooth="yes"/>
      <point x="225" y="145"/>
      <point x="224" y="159"/>
      <point x="231" y="169" type="curve" smooth="yes"/>
      <point x="240" y="181"/>
      <point x="250" y="183"/>
      <point x="273" y="178" type="curve" smooth="yes"/>
      <point x="309" y="170" type="line"/>
      <point x="309" y="292" type="line"/>
      <point x="207" y="292" type="line"/>
      <point x="216" y="256" type="line" smooth="yes"/>
      <point x="222" y="233"/>
      <point x="219" y="223"/>
      <point x="206" y="214" type="curve" smooth="yes"/>
      <point x="196" y="207"/>
      <point x="183" y="208"/>
      <point x="167" y="221" type="curve" smooth="yes"/>
      <point x="12" y="354" type="line"/>
      <point x="167" y="487" type="line" smooth="yes"/>
      <point x="183" y="500"/>
      <point x="196" y="501"/>
      <point x="206" y="494" type="curve" smooth="yes"/>
      <point x="219" y="485"/>
      <point x="222" y="475"/>
      <point x="216" y="452" type="curve" smooth="yes"/>
      <point x="207" y="416" type="line"/>
      <point x="309" y="416" type="line"/>
      <point x="309" y="530" type="line"/>
      <point x="273" y="522" type="line" smooth="yes"/>
      <point x="250" y="517"/>
      <point x="240" y="519"/>
      <point x="231" y="531" type="curve" smooth="yes"/>
      <point x="224" y="541"/>
      <point x="225" y="555"/>
      <point x="238" y="570" type="curve" smooth="yes"/>
      <point x="371" y="725" type="line"/>
      <point x="505" y="570" type="line" smooth="yes"/>
      <point x="518" y="555"/>
      <point x="518" y="541"/>
      <point x="512" y="531" type="curve"/>
      <point x="503" y="519"/>
      <point x="492" y="517"/>
      <point x="470" y="522" type="curve" smooth="yes"/>
      <point x="433" y="530" type="line"/>
      <point x="433" y="416" type="line"/>
      <point x="535" y="416" type="line"/>
      <point x="527" y="452" type="line" smooth="yes"/>
      <point x="522" y="475"/>
      <point x="524" y="485"/>
      <point x="536" y="494" type="curve" smooth="yes"/>
      <point x="546" y="501"/>
      <point x="560" y="500"/>
      <point x="575" y="487" type="curve" smooth="yes"/>
    </contour>
  </outline>
</glyph>
<glyph name="fi" format="1">
  <advance width="540"/>
  <unicode hex="FB01"/>
  <outline>
    <contour>
      <point x="557" y="654" type="curve" smooth="yes"/>
      <point x="557" y="606"/>
      <point x="522" y="574"/>
      <point x="470" y="574" type="curve" smooth="yes"/>
      <point x="419" y="574"/>
      <point x="383" y="606"/>
      <point x="383" y="654" type="curve" smooth="yes"/>
      <point x="383" y="700"/>
      <point x="419" y="732"/>
      <point x="470" y="732" type="curve" smooth="yes"/>
      <point x="522" y="732"/>
      <point x="557" y="700"/>
    </contour>
    <contour>
      <point x="341" y="599" type="line"/>
      <point x="329" y="604"/>
      <point x="314" y="607"/>
      <point x="298" y="607" type="curve" smooth="yes"/>
      <point x="276" y="607"/>
      <point x="263" y="596"/>
      <point x="259" y="573" type="curve" smooth="yes"/>
      <point x="251" y="525" type="line"/>
      <point x="318" y="525" type="line"/>
      <point x="295" y="398" type="line"/>
      <point x="229" y="398" type="line"/>
      <point x="159" y="0" type="line"/>
      <point x="8" y="0" type="line"/>
      <point x="78" y="398" type="line"/>
      <point x="32" y="398" type="line"/>
      <point x="55" y="525" type="line"/>
      <point x="101" y="525" type="line"/>
      <point x="112" y="590" type="line" smooth="yes"/>
      <point x="128" y="685"/>
      <point x="188" y="726"/>
      <point x="267" y="726" type="curve" smooth="yes"/>
      <point x="311" y="726"/>
      <point x="340" y="721"/>
      <point x="361" y="712" type="curve"/>
    </contour>
    <contour>
      <point x="433" y="0" type="line"/>
      <point x="279" y="0" type="line"/>
      <point x="372" y="525" type="line"/>
      <point x="526" y="525" type="line"/>
    </contour>
  </outline>
</glyph>
<glyph name="a.salt" format="1">
  <advance width="466"/>
  <outline>
    <contour>
      <point x="112" y="-11" type="curve" smooth="yes"/>
      <point x="44" y="-11"/>
      <point x="3" y="40"/>
      <point x="2" y="146" type="curve" smooth="yes"/>
      <point x="2" y="179"/>
      <point x="5" y="217"/>
      <point x="13" y="260" type="curve" smooth="yes"/>
      <point x="46" y="450"/>
      <point x="118" y="536"/>
      <point x="212" y="536" type="curve" smooth="yes"/>
      <point x="251" y="536"/>
      <point x="278" y="519"/>
      <point x="294" y="496" type="curve"/>
      <point x="300" y="525" type="line"/>
      <point x="454" y="525" type="line"/>
      <point x="361" y="0" type="line"/>
      <point x="207" y="0" type="line"/>
      <point x="212" y="31" type="line"/>
      <point x="188" y="6"/>
      <point x="155" y="-11"/>
    </contour>
    <contour>
      <point x="231" y="137" type="curve"/>
      <point x="275" y="387" type="line"/>
      <point x="266" y="399"/>
      <point x="255" y="406"/>
      <point x="237" y="406" type="curve" smooth="yes"/>
      <point x="209" y="406"/>
      <point x="189" y="384"/>
      <point x="167" y="264" type="curve" smooth="yes"/>
      <point x="160" y="226"/>
      <point x="157" y="197"/>
      <point x="157" y="176" type="curve" smooth="yes"/>
      <point x="157" y="128"/>
      <point x="172" y="119"/>
      <point x="192" y="119" type="curve" smooth="yes"/>
      <point x="208" y="119"/>
      <point x="221" y="127"/>
    </contour>
  </outline>
</glyph>
<glyph name="macron" format="1">
  <advance width="415"/>
  <outline>
    <contour>
      <point x="406" y="605" type="line"/>
      <point x="110" y="605" type="line"/>
      <point x="128" y="709" type="line"/>
      <point x="424" y="709" type="line"/>
    </contour>
  </outline>
</glyph>
<glyph name="registered" format="1">
  <advance width="659"/>
  <outline>
    <contour>
      <point x="620" y="350" type="curve" smooth="yes"/>
      <point x="620" y="140"/>
      <point x="505" y="-11"/>
      <point x="329" y="-11" type="curve" smooth="yes"/>
      <point x="154" y="-11"/>
      <point x="39" y="140"/>
      <point x="39" y="350" type="curve" smooth="yes"/>
      <point x="39" y="560"/>
      <point x="154" y="711"/>
      <point x="329" y="711" type="curve" smooth="yes"/>
      <point x="505" y="711"/>
      <point x="620" y="560"/>
    </contour>
    <contour>
      <point x="553" y="350" type="curve" smooth="yes"/>
      <point x="553" y="526"/>
      <point x="469" y="648"/>
      <point x="329" y="648" type="curve" smooth="yes"/>
      <point x="190" y="648"/>
      <point x="106" y="526"/>
      <point x="106" y="350" type="curve" smooth="yes"/>
      <point x="106" y="174"/>
      <point x="190" y="52"/>
      <point x="329" y="52" type="curve" smooth="yes"/>
      <point x="469" y="52"/>
      <point x="553" y="174"/>
    </contour>
    <contour>
      <point x="474" y="161" type="line"/>
      <point x="373" y="161" type="line"/>
      <point x="327" y="313" type="line"/>
      <point x="302" y="313" type="line"/>
      <point x="302" y="161" type="line"/>
      <point x="209" y="161" type="line"/>
      <point x="209" y="557" type="line"/>
      <point x="346" y="557" type="line" smooth="yes"/>
      <point x="417" y="557"/>
      <point x="469" y="524"/>
      <point x="469" y="437" type="curve" smooth="yes"/>
      <point x="469" y="385"/>
      <point x="449" y="352"/>
      <point x="417" y="332" type="curve"/>
    </contour>
    <contour>
      <point x="375" y="434" type="curve" smooth="yes"/>
      <point x="375" y="467"/>
      <point x="365" y="482"/>
      <point x="339" y="482" type="curve" smooth="yes"/>
      <point x="302" y="482" type="line"/>
      <point x="302" y="385" type="line"/>
      <point x="337" y="385" type="line" smooth="yes"/>
      <point x="365" y="385"/>
      <point x="375" y="401"/>
    </contour>
  </outline>
</glyph>
